<?xml version="1.0" encoding="UTF-8"?>
<svg id="Layer_1" xmlns="http://www.w3.org/2000/svg" xmlns:xlink="http://www.w3.org/1999/xlink" version="1.1" viewBox="0 0 1268 1214">
  <!-- Generator: Adobe Illustrator 29.1.0, SVG Export Plug-In . SVG Version: 2.1.0 Build 142)  -->
  <defs>
    <style>
      .st0, .st1, .st2 {
        fill: none;
      }

      .st3 {
        font-size: 11.4px;
      }

      .st3, .st4, .st5 {
        font-family: Arial-BoldMT, Arial;
        font-weight: 700;
      }

      .st6 {
        fill: #0000cd;
      }

      .st7 {
        fill: #fff;
        font-family: Arial-Black, 'Arial Black';
        font-weight: 800;
      }

      .st7, .st4 {
        font-size: 10px;
      }

      .st8, .st5 {
        isolation: isolate;
      }

      .st9 {
        letter-spacing: .3em;
      }

      .st10 {
        fill: #228b22;
      }

      .st11 {
        clip-path: url(#clippath-3);
      }

      .st12 {
        clip-path: url(#clippath-7);
      }

      .st5 {
        fill: #bebebe;
        font-size: 8.5px;
      }

      .st13 {
        fill: #cd950c;
      }

      .st1 {
        stroke: #000;
        stroke-opacity: .8;
        stroke-width: 1.3px;
      }

      .st1, .st2 {
        stroke-linejoin: round;
      }

      .st2 {
        stroke: #bebebe;
        stroke-width: .6px;
      }

      .st14 {
        letter-spacing: 0em;
      }
    </style>
    <clipPath id="clippath-3">
      <rect class="st0" x="377.7" y="348" width="515.3" height="515.3" transform="translate(18.7 1230.3) rotate(-89)"/>
    </clipPath>
    <clipPath id="clippath-7">
      <rect class="st0" x="1.4" width="1266.6" height="1214"/>
    </clipPath>
  </defs>
  <rect class="st0" width="1268" height="1214"/>
  <g class="st11">
    <g>
      <polygon class="st6" points="639 399.6 651.5 400.2 651 407.2 650.4 414.3 649.9 421.4 649.3 428.5 648.8 435.6 648.2 442.7 647.6 449.8 647.1 456.8 646.5 463.9 646 471 645.4 478.1 644.9 485.2 644.3 492.3 643.7 499.3 643.2 506.4 642.6 513.5 642.1 520.6 641.5 527.7 640.9 534.8 640.4 541.9 639.8 548.9 639.3 556 638.7 563.1 638.2 570.2 637.6 577.3 637 584.4 636.5 591.5 635.9 598.5 635.4 605.6 635.4 605.6 635.5 598.5 635.6 591.4 635.7 584.3 635.9 577.2 636 570.1 636.1 563 636.2 555.9 636.4 548.8 636.5 541.7 636.6 534.6 636.7 527.5 636.9 520.4 637 513.3 637.1 506.1 637.2 499 637.4 491.9 637.5 484.8 637.6 477.7 637.7 470.6 637.9 463.5 638 456.4 638.1 449.3 638.2 442.2 638.3 435.1 638.5 428 638.6 420.9 638.7 413.8 638.8 406.7 639 399.6"/>
      <polygon class="st6" points="647.4 399.9 659.9 401 659.1 408 658.2 415.1 657.4 422.2 656.5 429.2 655.7 436.3 654.8 443.3 654 450.4 653.1 457.4 652.3 464.5 651.4 471.6 650.6 478.6 649.7 485.7 648.9 492.7 648.1 499.8 647.2 506.8 646.4 513.9 645.5 521 644.7 528 643.8 535.1 643 542.1 642.1 549.2 641.3 556.2 640.4 563.3 639.6 570.3 638.8 577.4 637.9 584.5 637.1 591.5 636.2 598.6 635.4 605.6 635.4 605.6 635.8 598.5 636.2 591.4 636.6 584.3 637 577.2 637.4 570.2 637.9 563.1 638.3 556 638.7 548.9 639.1 541.8 639.5 534.7 639.9 527.6 640.3 520.5 640.7 513.4 641.2 506.3 641.6 499.2 642 492.1 642.4 485 642.8 477.9 643.2 470.8 643.6 463.7 644.1 456.6 644.5 449.5 644.9 442.4 645.3 435.3 645.7 428.3 646.1 421.2 646.5 414.1 646.9 407 647.4 399.9"/>
      <polygon class="st6" points="655.7 400.5 668.2 402.2 667.1 409.2 666 416.2 664.8 423.2 663.7 430.2 662.6 437.2 661.4 444.3 660.3 451.3 659.2 458.3 658 465.3 656.9 472.3 655.8 479.3 654.6 486.3 653.5 493.4 652.4 500.4 651.2 507.4 650.1 514.4 649 521.4 647.8 528.4 646.7 535.5 645.6 542.5 644.4 549.5 643.3 556.5 642.2 563.5 641 570.5 639.9 577.6 638.8 584.6 637.6 591.6 636.5 598.6 635.4 605.6 635.4 605.6 636.1 598.6 636.8 591.5 637.5 584.4 638.2 577.3 638.9 570.3 639.6 563.2 640.3 556.1 641 549 641.7 542 642.4 534.9 643.1 527.8 643.8 520.8 644.5 513.7 645.2 506.6 645.9 499.5 646.6 492.5 647.3 485.4 648 478.3 648.7 471.3 649.4 464.2 650.1 457.1 650.8 450 651.5 443 652.2 435.9 652.9 428.8 653.6 421.8 654.3 414.7 655 407.6 655.7 400.5"/>
      <polygon class="st6" points="664.1 401.5 676.5 403.7 675 410.6 673.6 417.6 672.2 424.6 670.8 431.5 669.4 438.5 668 445.4 666.5 452.4 665.1 459.4 663.7 466.3 662.3 473.3 660.9 480.3 659.5 487.2 658 494.2 656.6 501.2 655.2 508.1 653.8 515.1 652.4 522.1 651 529 649.5 536 648.1 543 646.7 549.9 645.3 556.9 643.9 563.8 642.5 570.8 641 577.8 639.6 584.7 638.2 591.7 636.8 598.7 635.4 605.6 635.4 605.6 636.4 598.6 637.3 591.6 638.3 584.5 639.3 577.5 640.3 570.4 641.3 563.4 642.3 556.4 643.3 549.3 644.3 542.3 645.3 535.3 646.3 528.2 647.2 521.2 648.2 514.1 649.2 507.1 650.2 500.1 651.2 493 652.2 486 653.2 478.9 654.2 471.9 655.2 464.9 656.1 457.8 657.1 450.8 658.1 443.8 659.1 436.7 660.1 429.7 661.1 422.6 662.1 415.6 663.1 408.6 664.1 401.5"/>
      <polygon class="st6" points="672.3 402.9 684.7 405.5 683 412.4 681.3 419.3 679.6 426.2 677.9 433.1 676.2 440 674.5 446.9 672.8 453.8 671.1 460.7 669.4 467.6 667.7 474.5 666 481.4 664.3 488.3 662.6 495.2 660.9 502.1 659.2 509 657.5 515.9 655.8 522.8 654.1 529.7 652.4 536.6 650.7 543.5 649 550.4 647.3 557.3 645.6 564.2 643.9 571.1 642.2 578 640.5 584.9 638.8 591.8 637.1 598.7 635.4 605.6 635.4 605.6 636.6 598.6 637.9 591.6 639.2 584.7 640.5 577.7 641.7 570.7 643 563.7 644.3 556.7 645.6 549.7 646.8 542.7 648.1 535.7 649.4 528.7 650.7 521.7 651.9 514.7 653.2 507.7 654.5 500.7 655.8 493.8 657 486.8 658.3 479.8 659.6 472.8 660.9 465.8 662.1 458.8 663.4 451.8 664.7 444.8 666 437.8 667.2 430.8 668.5 423.8 669.8 416.9 671.1 409.9 672.3 402.9"/>
      <polygon class="st6" points="680.6 404.5 692.8 407.7 690.8 414.5 688.8 421.3 686.8 428.2 684.9 435 682.9 441.8 680.9 448.6 678.9 455.5 676.9 462.3 675 469.1 673 475.9 671 482.8 669 489.6 667 496.4 665.1 503.2 663.1 510.1 661.1 516.9 659.1 523.7 657.1 530.5 655.2 537.4 653.2 544.2 651.2 551 649.2 557.8 647.2 564.7 645.3 571.5 643.3 578.3 641.3 585.2 639.3 592 637.3 598.8 635.4 605.6 635.4 605.6 636.9 598.7 638.5 591.8 640 584.8 641.6 577.9 643.2 571 644.7 564 646.3 557.1 647.8 550.2 649.4 543.2 651 536.3 652.5 529.4 654.1 522.4 655.6 515.5 657.2 508.6 658.7 501.6 660.3 494.7 661.9 487.7 663.4 480.8 665 473.9 666.5 466.9 668.1 460 669.7 453.1 671.2 446.1 672.8 439.2 674.3 432.3 675.9 425.3 677.5 418.4 679 411.5 680.6 404.5"/>
      <polygon class="st6" points="688.7 406.6 700.8 410.2 698.5 416.9 696.3 423.7 694 430.4 691.8 437.1 689.5 443.9 687.3 450.6 685 457.4 682.7 464.1 680.5 470.8 678.2 477.6 676 484.3 673.7 491.1 671.5 497.8 669.2 504.5 667 511.3 664.7 518 662.4 524.8 660.2 531.5 657.9 538.2 655.7 545 653.4 551.7 651.2 558.4 648.9 565.2 646.6 571.9 644.4 578.7 642.1 585.4 639.9 592.1 637.6 598.9 635.4 605.6 635.4 605.6 637.2 598.8 639.1 591.9 640.9 585 642.7 578.2 644.6 571.3 646.4 564.4 648.3 557.6 650.1 550.7 651.9 543.8 653.8 537 655.6 530.1 657.5 523.3 659.3 516.4 661.1 509.5 663 502.7 664.8 495.8 666.7 488.9 668.5 482.1 670.3 475.2 672.2 468.3 674 461.5 675.9 454.6 677.7 447.7 679.5 440.9 681.4 434 683.2 427.1 685 420.3 686.9 413.4 688.7 406.6"/>
      <polygon class="st6" points="696.8 408.9 708.7 413 706.2 419.6 703.6 426.3 701.1 432.9 698.6 439.6 696.1 446.2 693.5 452.9 691 459.5 688.5 466.1 685.9 472.8 683.4 479.4 680.9 486.1 678.3 492.7 675.8 499.3 673.3 506 670.8 512.6 668.2 519.3 665.7 525.9 663.2 532.6 660.7 539.2 658.1 545.8 655.6 552.5 653.1 559.1 650.5 565.8 648 572.4 645.5 579.1 643 585.7 640.4 592.3 637.9 599 635.4 605.6 635.4 605.6 637.5 598.8 639.6 592.1 641.7 585.3 643.8 578.5 646 571.7 648.1 564.9 650.2 558.1 652.3 551.4 654.4 544.6 656.5 537.8 658.7 531 660.8 524.2 662.9 517.4 665 510.7 667.1 503.9 669.3 497.1 671.4 490.3 673.5 483.5 675.6 476.7 677.7 469.9 679.8 463.2 682 456.4 684.1 449.6 686.2 442.8 688.3 436 690.4 429.2 692.6 422.5 694.7 415.7 696.8 408.9"/>
      <polygon class="st6" points="704.7 411.6 716.5 416.1 713.7 422.7 710.9 429.2 708.1 435.8 705.3 442.3 702.5 448.8 699.7 455.3 696.9 461.9 694.1 468.4 691.3 475 688.5 481.5 685.7 488 682.9 494.6 680.1 501.1 677.3 507.6 674.5 514.2 671.7 520.7 668.9 527.2 666.1 533.8 663.3 540.3 660.5 546.8 657.7 553.4 654.9 559.9 652.1 566.4 649.4 573 646.6 579.5 643.8 586 641 592.6 638.2 599.1 635.4 605.6 635.4 605.6 637.8 598.9 640.2 592.2 642.6 585.6 644.9 578.9 647.3 572.2 649.7 565.5 652.1 558.8 654.5 552.1 656.9 545.4 659.3 538.7 661.7 532 664.1 525.3 666.5 518.6 668.9 511.9 671.3 505.2 673.6 498.6 676 491.9 678.4 485.2 680.8 478.5 683.2 471.8 685.6 465.1 688 458.4 690.4 451.7 692.8 445 695.2 438.3 697.6 431.6 700 424.9 702.4 418.2 704.7 411.6"/>
      <polygon class="st6" points="712.6 414.5 724.1 419.6 721.1 426 718 432.4 714.9 438.9 711.9 445.3 708.8 451.7 705.8 458.1 702.7 464.5 699.6 470.9 696.6 477.3 693.5 483.8 690.5 490.2 687.4 496.6 684.3 503 681.3 509.4 678.2 515.8 675.2 522.2 672.1 528.7 669 535.1 666 541.5 662.9 547.9 659.8 554.3 656.8 560.7 653.7 567.1 650.7 573.6 647.6 580 644.5 586.4 641.5 592.8 638.4 599.2 635.4 605.6 635.4 605.6 638 599 640.7 592.5 643.4 585.9 646 579.3 648.7 572.7 651.4 566.1 654 559.5 656.7 552.9 659.3 546.3 662 539.7 664.7 533.2 667.3 526.6 670 520 672.7 513.4 675.3 506.8 678 500.2 680.6 493.6 683.3 487 686 480.4 688.6 473.8 691.3 467.3 694 460.7 696.6 454.1 699.3 447.5 701.9 440.9 704.6 434.3 707.3 427.7 709.9 421.1 712.6 414.5"/>
      <polygon class="st6" points="720.3 417.8 731.6 423.4 728.3 429.7 725 435.9 721.7 442.2 718.3 448.5 715 454.8 711.7 461.1 708.4 467.4 705.1 473.7 701.8 479.9 698.4 486.2 695.1 492.5 691.8 498.8 688.5 505.1 685.2 511.4 681.8 517.6 678.5 523.9 675.2 530.2 671.9 536.5 668.6 542.8 665.2 549.1 661.9 555.4 658.6 561.6 655.3 567.9 652 574.2 648.7 580.5 645.3 586.8 642 593.1 638.7 599.3 635.4 605.6 635.4 605.6 638.3 599.2 641.2 592.7 644.2 586.2 647.1 579.7 650 573.3 652.9 566.8 655.9 560.3 658.8 553.8 661.7 547.4 664.7 540.9 667.6 534.4 670.5 527.9 673.4 521.5 676.4 515 679.3 508.5 682.2 502 685.2 495.5 688.1 489.1 691 482.6 693.9 476.1 696.9 469.6 699.8 463.2 702.7 456.7 705.7 450.2 708.6 443.7 711.5 437.3 714.5 430.8 717.4 424.3 720.3 417.8"/>
      <polygon class="st6" points="727.9 421.5 739 427.5 735.4 433.6 731.8 439.7 728.3 445.9 724.7 452 721.1 458.2 717.5 464.3 714 470.5 710.4 476.6 706.8 482.7 703.2 488.9 699.7 495 696.1 501.2 692.5 507.3 689 513.5 685.4 519.6 681.8 525.8 678.2 531.9 674.7 538 671.1 544.2 667.5 550.3 664 556.5 660.4 562.6 656.8 568.8 653.2 574.9 649.7 581.1 646.1 587.2 642.5 593.3 638.9 599.5 635.4 605.6 635.4 605.6 638.6 599.3 641.8 592.9 644.9 586.6 648.1 580.2 651.3 573.9 654.5 567.5 657.7 561.2 660.9 554.8 664.1 548.5 667.3 542.1 670.5 535.8 673.7 529.4 676.8 523.1 680 516.7 683.2 510.4 686.4 504 689.6 497.7 692.8 491.3 696 485 699.2 478.6 702.4 472.3 705.6 465.9 708.8 459.6 711.9 453.2 715.1 446.9 718.3 440.5 721.5 434.2 724.7 427.8 727.9 421.5"/>
      <polygon class="st6" points="735.3 425.4 746.1 431.8 742.3 437.8 738.5 443.8 734.7 449.8 730.9 455.8 727 461.8 723.2 467.8 719.4 473.8 715.6 479.8 711.8 485.8 707.9 491.7 704.1 497.7 700.3 503.7 696.5 509.7 692.7 515.7 688.8 521.7 685 527.7 681.2 533.7 677.4 539.7 673.6 545.7 669.7 551.7 665.9 557.7 662.1 563.7 658.3 569.7 654.5 575.7 650.7 581.7 646.8 587.6 643 593.6 639.2 599.6 635.4 605.6 635.4 605.6 638.8 599.4 642.3 593.2 645.7 587 649.2 580.8 652.6 574.6 656 568.3 659.5 562.1 662.9 555.9 666.4 549.7 669.8 543.5 673.3 537.3 676.7 531 680.2 524.8 683.6 518.6 687.1 512.4 690.5 506.2 694 500 697.4 493.7 700.9 487.5 704.3 481.3 707.7 475.1 711.2 468.9 714.6 462.7 718.1 456.5 721.5 450.2 725 444 728.4 437.8 731.9 431.6 735.3 425.4"/>
      <polygon class="st6" points="742.6 429.6 753.1 436.5 749.1 442.3 745 448.1 740.9 454 736.9 459.8 732.8 465.6 728.8 471.5 724.7 477.3 720.6 483.1 716.6 489 712.5 494.8 708.5 500.6 704.4 506.5 700.3 512.3 696.3 518.1 692.2 524 688.2 529.8 684.1 535.6 680 541.5 676 547.3 671.9 553.1 667.8 559 663.8 564.8 659.7 570.6 655.7 576.5 651.6 582.3 647.5 588.1 643.5 594 639.4 599.8 635.4 605.6 635.4 605.6 639.1 599.6 642.8 593.5 646.5 587.4 650.2 581.3 653.9 575.3 657.5 569.2 661.2 563.1 664.9 557.1 668.6 551 672.3 544.9 676 538.9 679.7 532.8 683.4 526.7 687.1 520.7 690.8 514.6 694.5 508.5 698.2 502.4 701.9 496.4 705.6 490.3 709.3 484.2 713 478.2 716.7 472.1 720.4 466 724.1 459.9 727.8 453.9 731.5 447.8 735.2 441.7 738.9 435.7 742.6 429.6"/>
      <polygon class="st6" points="749.7 434.1 759.9 441.4 755.6 447.1 751.3 452.7 747 458.4 742.7 464.1 738.4 469.7 734.1 475.4 729.8 481 725.6 486.7 721.3 492.4 717 498 712.7 503.7 708.4 509.4 704.1 515 699.8 520.7 695.5 526.3 691.2 532 686.9 537.7 682.6 543.3 678.3 549 674 554.7 669.7 560.3 665.4 566 661.1 571.7 656.8 577.3 652.5 583 648.3 588.6 644 594.3 639.7 600 635.4 605.6 635.4 605.6 639.3 599.7 643.2 593.8 647.2 587.9 651.1 582 655.1 576.1 659 570.1 663 564.2 666.9 558.3 670.8 552.4 674.8 546.5 678.7 540.6 682.7 534.7 686.6 528.7 690.5 522.8 694.5 516.9 698.4 511 702.4 505.1 706.3 499.2 710.2 493.2 714.2 487.3 718.1 481.4 722.1 475.5 726 469.6 730 463.7 733.9 457.8 737.8 451.8 741.8 445.9 745.7 440 749.7 434.1"/>
      <polygon class="st10" points="644.5 594.1 645.2 594.7 640.3 600.1 635.4 605.6 635.4 605.6 639.9 599.9 644.5 594.1"/>
      <polygon class="st10" points="645 594.5 645.6 595.1 640.5 600.3 635.4 605.6 635.4 605.6 640.2 600 645 594.5"/>
      <polygon class="st10" points="645.4 594.9 646 595.5 640.7 600.6 635.4 605.6 635.4 605.6 640.4 600.2 645.4 594.9"/>
      <polygon class="st10" points="645.8 595.3 646.5 595.9 640.9 600.8 635.4 605.6 635.4 605.6 640.6 600.5 645.8 595.3"/>
      <polygon class="st10" points="646.3 595.7 646.8 596.4 641.1 601 635.4 605.6 635.4 605.6 640.8 600.7 646.3 595.7"/>
      <polygon class="st6" points="680.9 570.5 683 573.3 677 577.4 671.1 581.4 665.1 585.4 659.2 589.5 653.2 593.5 647.3 597.6 641.3 601.6 635.4 605.6 635.4 605.6 641.1 601.2 646.8 596.8 652.5 592.4 658.2 588.1 663.8 583.7 669.5 579.3 675.2 574.9 680.9 570.5"/>
      <polygon class="st6" points="682.3 572.4 684.3 575.3 678.2 579.1 672 582.9 665.9 586.7 659.8 590.5 653.7 594.2 647.6 598 641.5 601.8 635.4 605.6 635.4 605.6 641.2 601.5 647.1 597.3 653 593.2 658.8 589 664.7 584.8 670.6 580.7 676.5 576.5 682.3 572.4"/>
      <polygon class="st6" points="683.6 574.3 685.5 577.3 679.2 580.8 672.9 584.4 666.7 587.9 660.4 591.5 654.2 595 647.9 598.5 641.6 602.1 635.4 605.6 635.4 605.6 641.4 601.7 647.4 597.8 653.5 593.9 659.5 590 665.5 586 671.6 582.1 677.6 578.2 683.6 574.3"/>
      <polygon class="st6" points="684.9 576.3 686.6 579.4 680.2 582.6 673.8 585.9 667.4 589.2 661 592.5 654.6 595.8 648.2 599.1 641.8 602.4 635.4 605.6 635.4 605.6 641.6 602 647.7 598.3 653.9 594.6 660.1 591 666.3 587.3 672.5 583.6 678.7 580 684.9 576.3"/>
      <polygon class="st6" points="686 578.3 687.6 581.5 681.1 584.5 674.5 587.5 668 590.5 661.5 593.6 655 596.6 648.4 599.6 641.9 602.6 635.4 605.6 635.4 605.6 641.7 602.2 648 598.8 654.4 595.4 660.7 592 667 588.6 673.4 585.2 679.7 581.7 686 578.3"/>
      <polygon class="st6" points="687.1 580.4 688.5 583.6 681.9 586.4 675.3 589.1 668.6 591.9 662 594.6 655.3 597.4 648.7 600.1 642 602.9 635.4 605.6 635.4 605.6 641.8 602.5 648.3 599.3 654.8 596.2 661.2 593 667.7 589.9 674.2 586.7 680.6 583.6 687.1 580.4"/>
      <polygon class="st6" points="688.1 582.5 689.4 585.8 682.6 588.3 675.9 590.8 669.1 593.2 662.4 595.7 655.6 598.2 648.9 600.7 642.1 603.1 635.4 605.6 635.4 605.6 642 602.7 648.6 599.9 655.1 597 661.7 594.1 668.3 591.2 674.9 588.3 681.5 585.4 688.1 582.5"/>
      <polygon class="st6" points="689 584.7 690.2 588 683.3 590.2 676.5 592.4 669.6 594.6 662.8 596.8 655.9 599 649.1 601.2 642.2 603.4 635.4 605.6 635.4 605.6 642.1 603 648.8 600.4 655.5 597.8 662.2 595.2 668.9 592.6 675.6 589.9 682.3 587.3 689 584.7"/>
      <polygon class="st6" points="689.8 586.9 690.8 590.3 683.9 592.2 677 594.1 670 596 663.1 598 656.2 599.9 649.2 601.8 642.3 603.7 635.4 605.6 635.4 605.6 642.2 603.3 649 600.9 655.8 598.6 662.6 596.3 669.4 593.9 676.2 591.6 683 589.2 689.8 586.9"/>
      <polygon class="st6" points="690.5 589.1 691.4 592.5 684.4 594.2 677.4 595.8 670.4 597.5 663.4 599.1 656.4 600.7 649.4 602.4 642.4 604 635.4 605.6 635.4 605.6 642.3 603.6 649.2 601.5 656.1 599.5 662.9 597.4 669.8 595.3 676.7 593.3 683.6 591.2 690.5 589.1"/>
      <polygon class="st6" points="691.1 591.4 691.9 594.8 684.8 596.2 677.8 597.5 670.7 598.9 663.6 600.2 656.6 601.6 649.5 602.9 642.4 604.3 635.4 605.6 635.4 605.6 642.3 603.9 649.3 602.1 656.3 600.3 663.2 598.5 670.2 596.7 677.2 595 684.2 593.2 691.1 591.4"/>
      <polygon class="st6" points="691.7 593.7 692.3 597.1 685.2 598.2 678.1 599.3 670.9 600.3 663.8 601.4 656.7 602.5 649.6 603.5 642.5 604.6 635.4 605.6 635.4 605.6 642.4 604.1 649.4 602.6 656.5 601.1 663.5 599.7 670.6 598.2 677.6 596.7 684.6 595.2 691.7 593.7"/>
      <polygon class="st10" points="699.1 597.5 699.5 601.4 692.3 601.8 685.2 602.3 678.1 602.8 671 603.3 663.9 603.7 656.7 604.2 649.6 604.7 642.5 605.2 635.4 605.6 635.4 605.6 642.4 604.7 649.5 603.8 656.6 602.9 663.7 602 670.8 601.1 677.9 600.2 684.9 599.3 692 598.4 699.1 597.5"/>
      <polygon class="st10" points="699.4 600.1 699.6 604 692.5 604.2 685.3 604.3 678.2 604.5 671.1 604.7 663.9 604.9 656.8 605.1 649.6 605.3 642.5 605.4 635.4 605.6 635.4 605.6 642.5 605 649.6 604.4 656.7 603.8 663.8 603.2 670.9 602.5 678 601.9 685.1 601.3 692.3 600.7 699.4 600.1"/>
      <polygon class="st10" points="699.5 602.7 699.6 606.6 692.5 606.5 685.3 606.4 678.2 606.3 671.1 606.2 663.9 606.1 656.8 606 649.6 605.8 642.5 605.7 635.4 605.6 635.4 605.6 642.5 605.3 649.6 605 656.8 604.6 663.9 604.3 671 604 678.2 603.7 685.3 603.3 692.4 603 699.5 602.7"/>
      <polygon class="st10" points="699.6 605.3 699.5 609.2 692.4 608.8 685.3 608.4 678.1 608 671 607.6 663.9 607.2 656.8 606.8 649.6 606.4 642.5 606 635.4 605.6 635.4 605.6 642.5 605.6 649.6 605.5 656.8 605.5 663.9 605.5 671.1 605.4 678.2 605.4 685.3 605.4 692.5 605.3 699.6 605.3"/>
      <polygon class="st10" points="699.6 607.9 699.3 611.8 692.2 611.1 685.1 610.4 678 609.8 670.9 609.1 663.8 608.4 656.7 607.7 649.6 607 642.5 606.3 635.4 605.6 635.4 605.6 642.5 605.9 649.6 606.1 656.8 606.4 663.9 606.6 671 606.9 678.2 607.1 685.3 607.4 692.4 607.6 699.6 607.9"/>
      <polygon class="st10" points="699.4 610.5 699 614.4 691.9 613.4 684.9 612.5 677.8 611.5 670.7 610.5 663.7 609.5 656.6 608.6 649.5 607.6 642.4 606.6 635.4 605.6 635.4 605.6 642.5 606.2 649.6 606.7 656.7 607.3 663.8 607.8 671 608.3 678.1 608.9 685.2 609.4 692.3 610 699.4 610.5"/>
      <polygon class="st10" points="699.2 613.1 698.6 617 691.6 615.7 684.5 614.5 677.5 613.2 670.5 611.9 663.5 610.7 656.4 609.4 649.4 608.2 642.4 606.9 635.4 605.6 635.4 605.6 642.5 606.5 649.6 607.3 656.6 608.1 663.7 609 670.8 609.8 677.9 610.6 685 611.4 692.1 612.3 699.2 613.1"/>
      <polygon class="st10" points="698.8 615.7 698.1 619.6 691.1 618 684.1 616.5 677.2 614.9 670.2 613.4 663.2 611.8 656.3 610.3 649.3 608.7 642.3 607.2 635.4 605.6 635.4 605.6 642.4 606.8 649.5 607.9 656.5 609 663.6 610.1 670.6 611.2 677.7 612.3 684.7 613.5 691.8 614.6 698.8 615.7"/>
      <polygon class="st10" points="698.4 618.3 697.5 622.1 690.6 620.3 683.7 618.4 676.8 616.6 669.9 614.8 663 613 656.1 611.1 649.2 609.3 642.3 607.5 635.4 605.6 635.4 605.6 642.4 607 649.4 608.4 656.4 609.8 663.4 611.2 670.4 612.7 677.4 614.1 684.4 615.5 691.4 616.9 698.4 618.3"/>
      <polygon class="st6" points="734.4 634.1 732.5 640.1 725.6 637.6 718.6 635.2 711.7 632.7 704.8 630.2 697.8 627.8 690.9 625.3 683.9 622.9 677 620.4 670.1 617.9 663.1 615.5 656.2 613 649.2 610.6 642.3 608.1 635.4 605.6 635.4 605.6 642.4 607.7 649.5 609.7 656.6 611.7 663.7 613.8 670.7 615.8 677.8 617.8 684.9 619.9 692 621.9 699 623.9 706.1 625.9 713.2 628 720.3 630 727.3 632 734.4 634.1"/>
      <polygon class="st6" points="733.2 638.1 731 644 724.2 641.3 717.3 638.5 710.5 635.8 703.7 633 696.9 630.3 690 627.6 683.2 624.8 676.4 622.1 669.5 619.3 662.7 616.6 655.9 613.8 649 611.1 642.2 608.4 635.4 605.6 635.4 605.6 642.4 608 649.3 610.3 656.3 612.6 663.3 614.9 670.3 617.2 677.3 619.5 684.3 621.9 691.3 624.2 698.2 626.5 705.2 628.8 712.2 631.1 719.2 633.4 726.2 635.8 733.2 638.1"/>
      <polygon class="st6" points="731.8 642 729.4 647.9 722.7 644.8 715.9 641.8 709.2 638.8 702.5 635.8 695.8 632.8 689.1 629.8 682.4 626.7 675.7 623.7 668.9 620.7 662.2 617.7 655.5 614.7 648.8 611.7 642.1 608.6 635.4 605.6 635.4 605.6 642.3 608.2 649.1 610.8 656 613.4 662.9 616 669.8 618.6 676.7 621.2 683.6 623.8 690.5 626.4 697.3 629 704.2 631.6 711.1 634.2 718 636.8 724.9 639.4 731.8 642"/>
      <polygon class="st6" points="730.2 645.9 727.6 651.7 721 648.4 714.4 645.1 707.8 641.8 701.2 638.5 694.6 635.2 688.1 631.9 681.5 628.6 674.9 625.4 668.3 622.1 661.7 618.8 655.1 615.5 648.5 612.2 642 608.9 635.4 605.6 635.4 605.6 642.1 608.5 648.9 611.4 655.7 614.3 662.5 617.1 669.2 620 676 622.9 682.8 625.8 689.6 628.7 696.3 631.5 703.1 634.4 709.9 637.3 716.7 640.2 723.4 643.1 730.2 645.9"/>
      <polygon class="st6" points="728.5 649.8 725.6 655.4 719.2 651.8 712.7 648.3 706.3 644.7 699.8 641.2 693.4 637.6 686.9 634.1 680.5 630.5 674.1 626.9 667.6 623.4 661.2 619.8 654.7 616.3 648.3 612.7 641.8 609.2 635.4 605.6 635.4 605.6 642 608.8 648.7 611.9 655.3 615.1 662 618.2 668.6 621.4 675.3 624.5 681.9 627.7 688.6 630.9 695.2 634 701.9 637.2 708.5 640.3 715.2 643.5 721.8 646.6 728.5 649.8"/>
      <polygon class="st6" points="726.6 653.5 723.5 659 717.2 655.2 710.9 651.4 704.6 647.6 698.3 643.8 692 639.9 685.7 636.1 679.5 632.3 673.1 628.5 666.9 624.7 660.6 620.9 654.3 617.1 648 613.3 641.7 609.4 635.4 605.6 635.4 605.6 641.9 609.1 648.4 612.5 654.9 615.9 661.4 619.3 668 622.7 674.5 626.2 681 629.6 687.5 633 694 636.4 700.5 639.8 707.1 643.3 713.6 646.7 720.1 650.1 726.6 653.5"/>
      <polygon class="st6" points="724.6 657.2 721.3 662.5 715.1 658.5 709 654.4 702.9 650.4 696.7 646.3 690.6 642.2 684.5 638.2 678.3 634.1 672.2 630 666 626 659.9 621.9 653.8 617.8 647.6 613.8 641.5 609.7 635.4 605.6 635.4 605.6 641.7 609.3 648.1 613 654.5 616.7 660.9 620.4 667.2 624 673.6 627.7 680 631.4 686.4 635.1 692.7 638.8 699.1 642.5 705.5 646.1 711.9 649.8 718.2 653.5 724.6 657.2"/>
      <polygon class="st6" points="722.4 660.8 718.9 666 712.9 661.7 707 657.4 701 653.1 695 648.8 689.1 644.4 683.1 640.1 677.1 635.8 671.2 631.5 665.2 627.2 659.2 622.9 653.3 618.6 647.3 614.3 641.3 609.9 635.4 605.6 635.4 605.6 641.6 609.6 647.8 613.5 654 617.4 660.2 621.4 666.5 625.3 672.7 629.3 678.9 633.2 685.1 637.2 691.3 641.1 697.6 645 703.8 649 710 652.9 716.2 656.8 722.4 660.8"/>
      <polygon class="st6" points="720.1 664.3 716.4 669.4 710.6 664.8 704.8 660.2 699 655.7 693.2 651.1 687.4 646.6 681.7 642 675.9 637.5 670.1 632.9 664.3 628.4 658.5 623.8 652.7 619.3 646.9 614.7 641.2 610.2 635.4 605.6 635.4 605.6 641.4 609.8 647.5 614 653.5 618.2 659.6 622.4 665.6 626.6 671.7 630.8 677.7 635 683.8 639.2 689.8 643.3 695.9 647.5 701.9 651.7 708 655.9 714.1 660.1 720.1 664.3"/>
      <polygon class="st6" points="717.6 667.7 713.7 672.6 708.1 667.8 702.5 663 696.9 658.3 691.3 653.5 685.7 648.7 680.1 643.9 674.5 639.1 668.9 634.3 663.3 629.6 657.7 624.8 652.2 620 646.6 615.2 641 610.4 635.4 605.6 635.4 605.6 641.2 610.1 647.1 614.5 653 618.9 658.9 623.4 664.7 627.8 670.6 632.2 676.5 636.7 682.4 641.1 688.3 645.5 694.1 650 700 654.4 705.9 658.8 711.8 663.3 717.6 667.7"/>
      <polygon class="st6" points="715 671 710.9 675.7 705.5 670.7 700.1 665.7 694.7 660.7 689.3 655.7 683.9 650.7 678.5 645.7 673.1 640.7 667.7 635.7 662.3 630.7 657 625.7 651.6 620.7 646.2 615.6 640.8 610.6 635.4 605.6 635.4 605.6 641.1 610.3 646.7 615 652.4 619.6 658.1 624.3 663.8 629 669.5 633.6 675.2 638.3 680.9 643 686.6 647.7 692.3 652.3 698 657 703.7 661.7 709.4 666.3 715 671"/>
      <polygon class="st6" points="712.3 674.2 708 678.7 702.8 673.5 697.6 668.3 692.4 663.1 687.2 657.9 682.1 652.6 676.9 647.4 671.7 642.2 666.5 637 661.3 631.7 656.1 626.5 650.9 621.3 645.7 616.1 640.6 610.9 635.4 605.6 635.4 605.6 640.9 610.5 646.4 615.4 651.9 620.3 657.4 625.2 662.8 630.1 668.4 635 673.8 639.9 679.3 644.8 684.8 649.7 690.3 654.6 695.8 659.5 701.3 664.4 706.8 669.3 712.3 674.2"/>
      <polygon class="st6" points="709.5 677.3 705 681.6 700 676.2 695 670.8 690 665.4 685.1 659.9 680.1 654.5 675.1 649.1 670.2 643.6 665.2 638.2 660.2 632.8 655.3 627.4 650.3 621.9 645.3 616.5 640.3 611.1 635.4 605.6 635.4 605.6 640.7 610.7 646 615.9 651.2 621 656.5 626.1 661.8 631.2 667.1 636.3 672.4 641.4 677.7 646.6 683 651.7 688.3 656.8 693.6 661.9 698.9 667 704.2 672.1 709.5 677.3"/>
      <polygon class="st6" points="706.5 680.2 701.8 684.4 697.1 678.8 692.3 673.2 687.6 667.5 682.8 661.9 678.1 656.3 673.3 650.6 668.6 645 663.8 639.4 659.1 633.8 654.3 628.1 649.6 622.5 644.9 616.9 640.1 611.3 635.4 605.6 635.4 605.6 640.4 611 645.5 616.3 650.6 621.6 655.7 626.9 660.8 632.3 665.8 637.6 670.9 642.9 676 648.2 681.1 653.6 686.2 658.9 691.2 664.2 696.3 669.6 701.4 674.9 706.5 680.2"/>
      <polygon class="st6" points="675.8 655.6 672.6 657.9 668.5 652.1 664.4 646.3 660.2 640.5 656.1 634.7 651.9 628.9 647.8 623.1 643.6 617.3 639.5 611.4 635.4 605.6 635.4 605.6 639.9 611.2 644.3 616.7 648.8 622.3 653.3 627.8 657.8 633.4 662.3 638.9 666.8 644.5 671.3 650 675.8 655.6"/>
      <polygon class="st6" points="673.7 657.2 670.5 659.4 666.6 653.5 662.7 647.5 658.8 641.5 654.9 635.5 651 629.5 647.1 623.6 643.2 617.6 639.3 611.6 635.4 605.6 635.4 605.6 639.6 611.4 643.9 617.1 648.2 622.8 652.4 628.5 656.7 634.3 660.9 640 665.2 645.7 669.4 651.5 673.7 657.2"/>
      <polygon class="st6" points="671.6 658.7 668.3 660.8 664.6 654.7 661 648.6 657.3 642.4 653.6 636.3 650 630.2 646.3 624 642.7 617.9 639 611.8 635.4 605.6 635.4 605.6 639.4 611.5 643.4 617.4 647.4 623.3 651.5 629.2 655.5 635.1 659.5 641 663.5 646.9 667.6 652.8 671.6 658.7"/>
      <polygon class="st6" points="669.4 660.1 666 662.1 662.6 655.8 659.2 649.6 655.8 643.3 652.4 637 649 630.7 645.6 624.5 642.2 618.2 638.8 611.9 635.4 605.6 635.4 605.6 639.1 611.7 642.9 617.7 646.7 623.8 650.5 629.9 654.3 635.9 658 642 661.8 648 665.6 654.1 669.4 660.1"/>
      <polygon class="st6" points="667.1 661.5 663.7 663.3 660.5 656.9 657.4 650.5 654.2 644.1 651.1 637.7 647.9 631.3 644.8 624.9 641.7 618.5 638.5 612 635.4 605.6 635.4 605.6 638.9 611.8 642.4 618 646 624.2 649.5 630.5 653 636.7 656.5 642.9 660.1 649.1 663.6 655.3 667.1 661.5"/>
      <polygon class="st6" points="664.8 662.7 661.3 664.4 658.4 657.9 655.5 651.3 652.6 644.8 649.8 638.3 646.9 631.8 644 625.2 641.1 618.7 638.2 612.2 635.4 605.6 635.4 605.6 638.6 612 641.9 618.3 645.2 624.7 648.5 631 651.7 637.3 655 643.7 658.3 650 661.6 656.4 664.8 662.7"/>
      <polygon class="st6" points="662.5 663.9 658.9 665.4 656.3 658.8 653.7 652.1 651 645.5 648.4 638.8 645.8 632.2 643.2 625.6 640.6 618.9 638 612.3 635.4 605.6 635.4 605.6 638.4 612.1 641.4 618.6 644.4 625 647.4 631.5 650.4 638 653.4 644.5 656.5 650.9 659.5 657.4 662.5 663.9"/>
      <polygon class="st6" points="660.1 664.9 656.4 666.3 654.1 659.6 651.7 652.8 649.4 646.1 647.1 639.3 644.7 632.6 642.4 625.9 640 619.1 637.7 612.4 635.4 605.6 635.4 605.6 638.1 612.2 640.9 618.8 643.6 625.4 646.4 632 649.1 638.6 651.9 645.2 654.6 651.8 657.3 658.3 660.1 664.9"/>
      <polygon class="st6" points="657.7 665.9 653.9 667.1 651.9 660.3 649.8 653.5 647.7 646.6 645.7 639.8 643.6 633 641.6 626.1 639.5 619.3 637.4 612.5 635.4 605.6 635.4 605.6 637.8 612.3 640.3 619 642.8 625.7 645.3 632.4 647.7 639.1 650.2 645.8 652.7 652.5 655.2 659.2 657.7 665.9"/>
      <polygon class="st10" points="646.5 645.6 644.1 646.2 642.3 638.1 640.6 630 638.9 621.9 637.1 613.7 635.4 605.6 635.4 605.6 637.6 613.6 639.8 621.6 642.1 629.6 644.3 637.6 646.5 645.6"/>
      <polygon class="st10" points="644.9 646 642.4 646.5 641 638.3 639.6 630.2 638.2 622 636.8 613.8 635.4 605.6 635.4 605.6 637.3 613.7 639.2 621.8 641.1 629.9 643 637.9 644.9 646"/>
      <polygon class="st10" points="643.3 646.4 640.8 646.8 639.7 638.5 638.6 630.3 637.5 622.1 636.4 613.9 635.4 605.6 635.4 605.6 636.9 613.8 638.5 621.9 640.1 630.1 641.7 638.2 643.3 646.4"/>
      <polygon class="st10" points="641.6 646.7 639.1 647 638.3 638.7 637.6 630.4 636.9 622.2 636.1 613.9 635.4 605.6 635.4 605.6 636.6 613.8 637.9 622 639.1 630.2 640.3 638.4 641.6 646.7"/>
      <polygon class="st10" points="639.9 646.9 637.4 647.1 637 638.8 636.6 630.5 636.2 622.2 635.8 613.9 635.4 605.6 635.4 605.6 636.3 613.9 637.2 622.1 638.1 630.4 639 638.6 639.9 646.9"/>
      <polygon class="st10" points="638.2 647 635.7 647.1 635.6 638.8 635.6 630.5 635.5 622.2 635.4 613.9 635.4 605.6 635.4 605.6 635.9 613.9 636.5 622.2 637.1 630.5 637.7 638.7 638.2 647"/>
      <polygon class="st10" points="636.5 647.1 634 647.1 634.3 638.8 634.6 630.5 634.8 622.2 635.1 613.9 635.4 605.6 635.4 605.6 635.6 613.9 635.8 622.2 636.1 630.5 636.3 638.8 636.5 647.1"/>
      <polygon class="st10" points="634.9 647.1 632.3 647 632.9 638.7 633.5 630.5 634.2 622.2 634.8 613.9 635.4 605.6 635.4 605.6 635.3 613.9 635.2 622.2 635.1 630.5 635 638.8 634.9 647.1"/>
      <polygon class="st10" points="633.2 647.1 630.6 646.9 631.6 638.6 632.5 630.4 633.5 622.1 634.4 613.9 635.4 605.6 635.4 605.6 634.9 613.9 634.5 622.2 634 630.5 633.6 638.8 633.2 647.1"/>
      <polygon class="st10" points="631.5 646.9 629 646.6 630.2 638.4 631.5 630.2 632.8 622 634.1 613.8 635.4 605.6 635.4 605.6 634.6 613.9 633.8 622.2 633 630.4 632.3 638.7 631.5 646.9"/>
      <polygon class="st10" points="629.8 646.7 627.3 646.3 628.9 638.2 630.5 630 632.1 621.9 633.8 613.8 635.4 605.6 635.4 605.6 634.3 613.9 633.1 622.1 632 630.3 630.9 638.5 629.8 646.7"/>
      <polygon class="st10" points="628.1 646.5 625.7 646 627.6 637.9 629.5 629.8 631.5 621.8 633.4 613.7 635.4 605.6 635.4 605.6 633.9 613.8 632.5 622 631 630.1 629.6 638.3 628.1 646.5"/>
      <polygon class="st10" points="626.5 646.2 624 645.5 626.3 637.6 628.6 629.6 630.8 621.6 633.1 613.6 635.4 605.6 635.4 605.6 633.6 613.7 631.8 621.8 630 629.9 628.3 638.1 626.5 646.2"/>
      <polygon class="st6" points="632.6 614.6 632.1 614.4 635.4 605.6 635.4 605.6 632.6 614.6"/>
      <polygon class="st6" points="632.3 614.5 631.7 614.3 635.4 605.6 635.4 605.6 632.3 614.5"/>
      <polygon class="st6" points="631.9 614.3 631.4 614.1 635.4 605.6 635.4 605.6 631.9 614.3"/>
      <polygon class="st6" points="631.6 614.2 631 613.9 635.4 605.6 635.4 605.6 631.6 614.2"/>
      <polygon class="st6" points="631.2 614 630.7 613.7 635.4 605.6 635.4 605.6 631.2 614"/>
      <polygon class="st6" points="609.8 648.1 607.3 646.4 611.3 640.6 615.3 634.8 619.3 628.9 623.3 623.1 627.3 617.3 631.4 611.5 635.4 605.6 635.4 605.6 631.7 611.7 628.1 617.8 624.4 623.8 620.8 629.9 617.1 635.9 613.5 642 609.8 648.1"/>
      <polygon class="st6" points="608.1 647 605.6 645.2 609.9 639.6 614.1 633.9 618.4 628.3 622.6 622.6 626.9 616.9 631.1 611.3 635.4 605.6 635.4 605.6 631.5 611.5 627.6 617.4 623.7 623.3 619.8 629.3 615.9 635.2 612 641.1 608.1 647"/>
      <polygon class="st6" points="606.5 645.8 604.1 644 608.5 638.5 613 633 617.5 627.6 622 622.1 626.4 616.6 630.9 611.1 635.4 605.6 635.4 605.6 631.2 611.4 627.1 617.1 623 622.9 618.8 628.6 614.7 634.3 610.6 640.1 606.5 645.8"/>
      <polygon class="st6" points="604.8 644.6 602.5 642.7 607.2 637.4 611.9 632.1 616.6 626.8 621.3 621.5 626 616.2 630.7 610.9 635.4 605.6 635.4 605.6 631 611.2 626.7 616.8 622.3 622.3 617.9 627.9 613.6 633.5 609.2 639.1 604.8 644.6"/>
      <polygon class="st6" points="603.3 643.3 601 641.3 605.9 636.2 610.9 631.1 615.8 626 620.7 620.9 625.6 615.8 630.5 610.7 635.4 605.6 635.4 605.6 630.8 611 626.2 616.4 621.6 621.8 617 627.2 612.5 632.6 607.9 638 603.3 643.3"/>
      <polygon class="st6" points="601.8 642 599.6 639.9 604.7 635 609.8 630.1 614.9 625.2 620.1 620.3 625.2 615.4 630.3 610.5 635.4 605.6 635.4 605.6 630.6 610.8 625.8 616 621 621.2 616.2 626.4 611.4 631.6 606.6 636.8 601.8 642"/>
      <polygon class="st6" points="600.3 640.6 598.3 638.4 603.6 633.7 608.9 629 614.2 624.4 619.5 619.7 624.8 615 630.1 610.3 635.4 605.6 635.4 605.6 630.4 610.6 625.4 615.6 620.3 620.6 615.3 625.6 610.3 630.6 605.3 635.6 600.3 640.6"/>
      <polygon class="st6" points="598.9 639.2 596.9 636.9 602.4 632.4 607.9 627.9 613.4 623.5 618.9 619 624.4 614.6 629.9 610.1 635.4 605.6 635.4 605.6 630.2 610.4 625 615.2 619.7 620 614.5 624.8 609.3 629.6 604.1 634.4 598.9 639.2"/>
      <polygon class="st6" points="597.6 637.6 595.7 635.3 601.4 631 607 626.8 612.7 622.6 618.4 618.3 624 614.1 629.7 609.9 635.4 605.6 635.4 605.6 630 610.2 624.6 614.8 619.2 619.3 613.8 623.9 608.4 628.5 603 633.1 597.6 637.6"/>
      <polygon class="st6" points="596.3 636.1 594.5 633.6 600.4 629.6 606.2 625.6 612 621.6 617.9 617.6 623.7 613.6 629.5 609.6 635.4 605.6 635.4 605.6 629.8 610 624.2 614.3 618.6 618.7 613.1 623 607.5 627.4 601.9 631.7 596.3 636.1"/>
      <polygon class="st6" points="595.1 634.5 593.4 632 599.4 628.2 605.4 624.4 611.4 620.7 617.4 616.9 623.4 613.2 629.4 609.4 635.4 605.6 635.4 605.6 629.6 609.8 623.9 613.9 618.1 618 612.4 622.1 606.6 626.2 600.9 630.3 595.1 634.5"/>
      <polygon class="st6" points="594 632.8 592.4 630.2 598.5 626.7 604.7 623.2 610.8 619.7 617 616.2 623.1 612.7 629.2 609.1 635.4 605.6 635.4 605.6 629.5 609.5 623.5 613.4 617.6 617.3 611.7 621.2 605.8 625 599.9 628.9 594 632.8"/>
      <polygon class="st6" points="592.9 631.1 591.4 628.5 597.7 625.2 604 621.9 610.3 618.7 616.5 615.4 622.8 612.2 629.1 608.9 635.4 605.6 635.4 605.6 629.3 609.3 623.2 612.9 617.2 616.5 611.1 620.2 605 623.8 599 627.5 592.9 631.1"/>
      <polygon class="st13" points="615 615.7 614.4 614.4 621.4 611.5 628.4 608.6 635.4 605.6 635.4 605.6 628.6 609 621.8 612.3 615 615.7"/>
      <polygon class="st13" points="614.6 614.9 614 613.6 621.2 610.9 628.3 608.3 635.4 605.6 635.4 605.6 628.4 608.7 621.5 611.8 614.6 614.9"/>
      <polygon class="st13" points="614.2 614 613.7 612.7 621 610.3 628.2 608 635.4 605.6 635.4 605.6 628.3 608.4 621.3 611.2 614.2 614"/>
      <polygon class="st13" points="613.9 613.1 613.5 611.8 620.8 609.8 628.1 607.7 635.4 605.6 635.4 605.6 628.2 608.1 621.1 610.6 613.9 613.1"/>
      <polygon class="st13" points="613.6 612.3 613.2 610.9 620.6 609.2 628 607.4 635.4 605.6 635.4 605.6 628.1 607.8 620.9 610 613.6 612.3"/>
      <polygon class="st13" points="613.4 611.4 613 610 620.5 608.6 627.9 607.1 635.4 605.6 635.4 605.6 628 607.5 620.7 609.5 613.4 611.4"/>
      <polygon class="st13" points="613.1 610.5 612.9 609.1 620.4 607.9 627.9 606.8 635.4 605.6 635.4 605.6 628 607.2 620.6 608.9 613.1 610.5"/>
      <polygon class="st13" points="613 609.6 612.8 608.2 620.3 607.3 627.8 606.5 635.4 605.6 635.4 605.6 627.9 606.9 620.4 608.2 613 609.6"/>
      <polygon class="st6" points="610 608 610 606.4 618.4 606.2 626.9 605.9 635.4 605.6 635.4 605.6 626.9 606.4 618.5 607.2 610 608"/>
      <polygon class="st6" points="610 606.9 609.9 605.4 618.4 605.5 626.9 605.5 635.4 605.6 635.4 605.6 626.9 606.1 618.4 606.5 610 606.9"/>
      <polygon class="st6" points="609.9 605.9 610 604.3 618.4 604.8 626.9 605.2 635.4 605.6 635.4 605.6 626.9 605.7 618.4 605.8 609.9 605.9"/>
      <polygon class="st6" points="609.9 604.9 610 603.3 618.5 604.1 626.9 604.9 635.4 605.6 635.4 605.6 626.9 605.4 618.4 605.1 609.9 604.9"/>
      <polygon class="st6" points="610 603.8 610.2 602.3 618.6 603.4 627 604.5 635.4 605.6 635.4 605.6 626.9 605 618.5 604.4 610 603.8"/>
      <polygon class="st6" points="610.1 602.8 610.3 601.3 618.7 602.7 627 604.2 635.4 605.6 635.4 605.6 626.9 604.7 618.5 603.7 610.1 602.8"/>
      <polygon class="st6" points="610.2 601.8 610.5 600.2 618.8 602 627.1 603.8 635.4 605.6 635.4 605.6 627 604.3 618.6 603.1 610.2 601.8"/>
      <polygon class="st6" points="610.4 600.8 610.8 599.2 619 601.4 627.2 603.5 635.4 605.6 635.4 605.6 627 604 618.7 602.4 610.4 600.8"/>
      <polygon class="st10" points="582.6 590.8 583.6 587.6 591 590.1 598.4 592.7 605.8 595.3 613.2 597.9 620.6 600.5 628 603.1 635.4 605.6 635.4 605.6 627.8 603.5 620.3 601.4 612.7 599.3 605.2 597.1 597.6 595 590.1 592.9 582.6 590.8"/>
      <polygon class="st10" points="583.2 588.6 584.3 585.5 591.6 588.3 598.9 591.2 606.2 594.1 613.5 597 620.8 599.9 628.1 602.8 635.4 605.6 635.4 605.6 627.9 603.2 620.5 600.8 613 598.3 605.6 595.9 598.1 593.5 590.7 591 583.2 588.6"/>
      <polygon class="st10" points="583.9 586.5 585.2 583.4 592.4 586.6 599.5 589.8 606.7 592.9 613.9 596.1 621 599.3 628.2 602.5 635.4 605.6 635.4 605.6 628 602.9 620.7 600.2 613.3 597.4 606 594.7 598.6 592 591.3 589.2 583.9 586.5"/>
      <polygon class="st10" points="584.8 584.4 586.1 581.4 593.2 584.8 600.2 588.3 607.2 591.8 614.3 595.2 621.3 598.7 628.3 602.2 635.4 605.6 635.4 605.6 628.1 602.6 620.9 599.6 613.7 596.5 606.4 593.5 599.2 590.5 592 587.5 584.8 584.4"/>
      <polygon class="st10" points="585.7 582.4 587.2 579.4 594.1 583.1 601 586.9 607.8 590.6 614.7 594.4 621.6 598.1 628.5 601.9 635.4 605.6 635.4 605.6 628.3 602.3 621.2 599 614.1 595.7 607 592.3 599.9 589 592.8 585.7 585.7 582.4"/>
      <polygon class="st10" points="586.7 580.4 588.3 577.4 595 581.5 601.7 585.5 608.5 589.5 615.2 593.6 621.9 597.6 628.6 601.6 635.4 605.6 635.4 605.6 628.4 602 621.5 598.4 614.5 594.8 607.5 591.2 600.6 587.6 593.6 584 586.7 580.4"/>
      <polygon class="st10" points="587.7 578.4 589.5 575.6 596 579.8 602.6 584.1 609.1 588.4 615.7 592.7 622.3 597 628.8 601.3 635.4 605.6 635.4 605.6 628.6 601.7 621.8 597.9 615 594 608.1 590.1 601.3 586.2 594.5 582.3 587.7 578.4"/>
      <polygon class="st10" points="588.9 576.5 590.7 573.7 597.1 578.3 603.5 582.8 609.9 587.4 616.2 592 622.6 596.5 629 601.1 635.4 605.6 635.4 605.6 628.7 601.5 622.1 597.3 615.4 593.1 608.8 589 602.2 584.8 595.5 580.7 588.9 576.5"/>
      <polygon class="st10" points="590.1 574.6 592.1 571.9 598.3 576.7 604.4 581.5 610.6 586.4 616.8 591.2 623 596 629.2 600.8 635.4 605.6 635.4 605.6 628.9 601.2 622.4 596.8 616 592.3 609.5 587.9 603 583.5 596.6 579.1 590.1 574.6"/>
      <polygon class="st10" points="591.4 572.8 593.5 570.2 599.5 575.2 605.4 580.3 611.4 585.4 617.4 590.4 623.4 595.5 629.4 600.6 635.4 605.6 635.4 605.6 629.1 600.9 622.8 596.2 616.5 591.6 610.2 586.9 604 582.2 597.7 577.5 591.4 572.8"/>
      <polygon class="st10" points="592.8 571 595 568.5 600.7 573.8 606.5 579.1 612.3 584.4 618.1 589.7 623.8 595 629.6 600.3 635.4 605.6 635.4 605.6 629.3 600.7 623.2 595.7 617.1 590.8 611 585.9 604.9 580.9 598.9 576 592.8 571"/>
      <polygon class="st10" points="594.2 569.3 596.5 566.9 602.1 572.4 607.6 578 613.2 583.5 618.7 589 624.3 594.6 629.8 600.1 635.4 605.6 635.4 605.6 629.5 600.4 623.6 595.3 617.7 590.1 611.8 584.9 606 579.7 600.1 574.5 594.2 569.3"/>
      <polygon class="st10" points="595.7 567.7 598.1 565.3 603.4 571.1 608.8 576.9 614.1 582.6 619.4 588.4 624.7 594.1 630 599.9 635.4 605.6 635.4 605.6 629.7 600.2 624 594.8 618.4 589.4 612.7 584 607 578.5 601.4 573.1 595.7 567.7"/>
      <polygon class="st10" points="597.3 566.1 599.8 563.9 604.9 569.8 610 575.8 615 581.8 620.1 587.7 625.2 593.7 630.3 599.7 635.4 605.6 635.4 605.6 629.9 600 624.5 594.3 619.1 588.7 613.6 583 608.2 577.4 602.7 571.8 597.3 566.1"/>
      <polygon class="st10" points="598.9 564.6 601.5 562.4 606.4 568.6 611.2 574.8 616 580.9 620.9 587.1 625.7 593.3 630.5 599.5 635.4 605.6 635.4 605.6 630.2 599.8 625 593.9 619.8 588 614.6 582.2 609.3 576.3 604.1 570.4 598.9 564.6"/>
      <polygon class="st10" points="613.7 576.7 615.5 575.5 619.4 581.5 623.4 587.5 627.4 593.6 631.4 599.6 635.4 605.6 635.4 605.6 631 599.9 626.7 594.1 622.3 588.3 618 582.5 613.7 576.7"/>
      <polygon class="st10" points="614.9 575.9 616.7 574.7 620.4 580.9 624.2 587.1 627.9 593.2 631.6 599.4 635.4 605.6 635.4 605.6 631.3 599.7 627.2 593.7 623.1 587.8 619 581.8 614.9 575.9"/>
      <polygon class="st10" points="616.1 575.1 618 574 621.5 580.3 624.9 586.6 628.4 593 631.9 599.3 635.4 605.6 635.4 605.6 631.5 599.5 627.7 593.4 623.8 587.3 619.9 581.2 616.1 575.1"/>
      <polygon class="st10" points="617.3 574.3 619.3 573.3 622.5 579.7 625.7 586.2 628.9 592.7 632.2 599.2 635.4 605.6 635.4 605.6 631.8 599.4 628.2 593.1 624.6 586.8 620.9 580.6 617.3 574.3"/>
      <polygon class="st10" points="618.6 573.6 620.6 572.6 623.6 579.2 626.5 585.8 629.5 592.4 632.4 599 635.4 605.6 635.4 605.6 632 599.2 628.7 592.8 625.3 586.4 622 580 618.6 573.6"/>
      <polygon class="st10" points="619.9 572.9 622 572.1 624.7 578.8 627.3 585.5 630 592.2 632.7 598.9 635.4 605.6 635.4 605.6 632.3 599.1 629.2 592.6 626.1 586 623 579.5 619.9 572.9"/>
      <polygon class="st10" points="621.3 572.3 623.4 571.6 625.8 578.4 628.2 585.2 630.6 592 633 598.8 635.4 605.6 635.4 605.6 632.6 599 629.7 592.3 626.9 585.7 624.1 579 621.3 572.3"/>
      <polygon class="st10" points="630.3 590.4 631.3 590.1 633.3 597.9 635.4 605.6 635.4 605.6 632.9 598 630.3 590.4"/>
      <polygon class="st10" points="631 590.2 631.9 589.9 633.6 597.8 635.4 605.6 635.4 605.6 633.2 597.9 631 590.2"/>
      <polygon class="st10" points="631.6 590 632.6 589.8 634 597.7 635.4 605.6 635.4 605.6 633.5 597.8 631.6 590"/>
      <polygon class="st10" points="632.2 589.9 633.2 589.7 634.3 597.7 635.4 605.6 635.4 605.6 633.8 597.8 632.2 589.9"/>
      <polygon class="st10" points="632.9 589.8 633.8 589.6 634.6 597.6 635.4 605.6 635.4 605.6 634.1 597.7 632.9 589.8"/>
      <polygon class="st10" points="633.5 589.7 634.5 589.6 634.9 597.6 635.4 605.6 635.4 605.6 634.4 597.7 633.5 589.7"/>
      <polygon class="st10" points="634.2 589.6 635.2 589.6 635.3 597.6 635.4 605.6 635.4 605.6 634.8 597.6 634.2 589.6"/>
    </g>
  </g>
  <g class="st12">
    <g>
      <polygon class="st6" points="648.7 292.4 660.1 293.1 658.5 313.8 656.8 334.5 655.2 355.1 653.6 375.8 645.2 375.3 646.1 354.6 647 333.8 647.8 313.1 648.7 292.4"/>
      <polygon class="st6" points="660 309.3 670.8 310.4 668.2 332.5 665.5 354.6 662.9 376.7 654.5 375.9 656.4 353.7 658.2 331.5 660 309.3"/>
      <polygon class="st6" points="670.3 324.2 680.6 325.7 677.8 343.1 674.9 360.6 672.1 378 663.8 376.9 666 359.3 668.2 341.8 670.3 324.2"/>
      <polygon class="st6" points="678.3 346.4 687.8 348.1 681.3 379.7 673 378.2 678.3 346.4"/>
      <polygon class="st6" points="686.9 357.3 695.9 359.4 690.4 381.8 682.2 379.9 686.9 357.3"/>
      <polygon class="st6" points="696.9 359.6 705.9 362 699.5 384.2 691.3 382 696.9 359.6"/>
      <polygon class="st6" points="706.2 364.5 715 367.3 708.4 387 700.4 384.4 706.2 364.5"/>
      <polygon class="st6" points="713.7 374.2 722.1 377.2 717.2 390.1 709.3 387.3 713.7 374.2"/>
      <polygon class="st6" points="721.4 381.8 729.5 385.1 725.8 393.6 718.1 390.4 721.4 381.8"/>
      <polygon class="st6" points="729.5 387.6 737.3 391.2 734.4 397.4 726.7 394 729.5 387.6"/>
      <polygon class="st6" points="738.2 391.6 746 395.5 742.7 401.6 735.2 397.8 738.2 391.6"/>
      <polygon class="st6" points="746.8 396 754.4 400.1 750.9 406.1 743.5 402 746.8 396"/>
      <polygon class="st6" points="754 402.6 761.4 407.1 758.9 411 751.7 406.6 754 402.6"/>
      <polygon class="st6" points="760.9 409.5 768 414.2 766.7 416.1 759.7 411.5 760.9 409.5"/>
      <polygon class="st6" points="768.8 414.8 775.6 419.8 774.3 421.6 767.5 416.7 768.8 414.8"/>
      <polygon class="st10" points="791.1 417.3 797.9 423.1 788.7 433.5 782.3 428 791.1 417.3"/>
      <polygon class="st10" points="792.5 430.7 798.8 436.5 795.5 439.8 789.4 434.1 792.5 430.7"/>
      <polygon class="st10" points="797.8 438.8 803.8 444.9 802.1 446.5 796.2 440.5 797.8 438.8"/>
      <polygon class="st10" points="804.5 445.5 810.2 451.8 808.5 453.4 802.8 447.1 804.5 445.5"/>
      <polygon class="st10" points="810.8 452.5 816.3 459 814.5 460.5 809.1 454 810.8 452.5"/>
      <polygon class="st6" points="844.9 450.8 850.4 458.5 825.7 475.5 820.8 468.6 844.9 450.8"/>
      <polygon class="st6" points="841.4 465.9 846.4 473.5 830.8 483.3 826.2 476.2 841.4 465.9"/>
      <polygon class="st6" points="841.1 478 845.6 485.6 835.6 491.3 831.3 484.1 841.1 478"/>
      <polygon class="st6" points="846.1 486.4 850.3 494.2 840 499.5 836 492.1 846.1 486.4"/>
      <polygon class="st6" points="846.6 497.2 850.4 505 844.2 507.9 840.5 500.3 846.6 497.2"/>
      <polygon class="st6" points="848.7 506.8 852.2 514.7 848 516.4 844.6 508.7 848.7 506.8"/>
      <polygon class="st6" points="852.6 515.5 855.7 523.5 851.4 525.1 848.3 517.3 852.6 515.5"/>
      <polygon class="st6" points="853.9 525.2 856.7 533.2 854.5 534 851.7 526 853.9 525.2"/>
      <polygon class="st6" points="857 534.1 859.4 542.3 857.2 542.9 854.8 534.8 857 534.1"/>
      <polygon class="st6" points="859.7 543.2 861.8 551.4 859.6 551.9 857.5 543.8 859.7 543.2"/>
      <polygon class="st6" points="862 552.3 863.8 560.6 861.6 561.1 859.8 552.8 862 552.3"/>
      <polygon class="st6" points="864 561.5 865.5 569.9 863.2 570.3 861.7 562 864 561.5"/>
      <polygon class="st10" points="896.6 576.9 897.5 586.5 865.3 588.8 864.5 580.5 896.6 576.9"/>
      <polygon class="st10" points="893 587.8 893.4 597.3 865.8 598.2 865.4 589.8 893 587.8"/>
      <polygon class="st10" points="884.2 598.6 884.3 607.7 865.9 607.5 865.8 599.1 884.2 598.6"/>
      <polygon class="st10" points="879.7 608.6 879.5 617.5 865.6 616.8 865.9 608.4 879.7 608.6"/>
      <polygon class="st10" points="874.8 618.3 874.2 627 865 626.2 865.6 617.8 874.8 618.3"/>
      <polygon class="st10" points="867.2 627.3 866.3 635.8 864 635.5 864.9 627.1 867.2 627.3"/>
      <polygon class="st10" points="866.1 636.7 864.8 645.1 862.6 644.7 863.8 636.4 866.1 636.7"/>
      <polygon class="st10" points="864.7 646 863.1 654.3 860.8 653.9 862.4 645.6 864.7 646"/>
      <polygon class="st10" points="862.9 655.3 860.9 663.5 858.7 663 860.6 654.8 862.9 655.3"/>
      <polygon class="st6" points="893.4 684.3 890.3 693.7 871.8 687.2 853.3 680.9 855.9 672.9 874.6 678.6 893.4 684.3"/>
      <polygon class="st6" points="879.1 690.9 875.8 699.7 850.1 689.6 853 681.7 879.1 690.9"/>
      <polygon class="st6" points="871.2 699 867.6 707.5 846.5 698.3 849.7 690.5 871.2 699"/>
      <polygon class="st6" points="867.2 708.5 863.3 716.8 842.5 706.7 846.1 699.1 867.2 708.5"/>
      <polygon class="st6" points="852.5 712.7 848.4 720.5 838.3 715 842.1 707.6 852.5 712.7"/>
      <polygon class="st6" points="848 721.4 843.6 729.1 833.7 723.2 837.8 715.9 848 721.4"/>
      <polygon class="st6" points="843.1 729.9 838.4 737.4 828.8 731.1 833.2 724 843.1 729.9"/>
      <polygon class="st6" points="836 737 831 744.2 823.5 738.9 828.2 731.9 836 737"/>
      <polygon class="st6" points="826.7 742.3 821.6 749.2 818 746.4 823 739.6 826.7 742.3"/>
      <polygon class="st6" points="821 749.9 815.6 756.6 812.1 753.7 817.4 747.1 821 749.9"/>
      <polygon class="st6" points="815 757.3 809.4 763.8 806 760.7 811.5 754.4 815 757.3"/>
      <polygon class="st6" points="807 763 801.2 769.1 799.5 767.5 805.3 761.4 807 763"/>
      <polygon class="st6" points="800.5 769.8 794.4 775.7 792.8 774 798.9 768.2 800.5 769.8"/>
      <polygon class="st6" points="793.7 776.3 787.4 782 785.9 780.2 792.2 774.6 793.7 776.3"/>
      <polygon class="st6" points="792.2 804.9 784.8 810.5 771.2 791.9 778 786.8 792.2 804.9"/>
      <polygon class="st6" points="784 811.1 776.4 816.4 763.6 797.2 770.5 792.4 784 811.1"/>
      <polygon class="st6" points="771.7 811.2 764.2 816 755.7 802.3 762.8 797.7 771.7 811.2"/>
      <polygon class="st6" points="763.3 816.5 755.5 821.1 747.7 807 754.9 802.7 763.3 816.5"/>
      <polygon class="st6" points="751.3 815.5 743.6 819.6 739.4 811.4 746.8 807.4 751.3 815.5"/>
      <polygon class="st6" points="741.7 818 733.8 821.7 731 815.4 738.6 811.8 741.7 818"/>
      <polygon class="st6" points="733 822.1 725 825.5 722.4 819.1 730.1 815.8 733 822.1"/>
      <polygon class="st6" points="724.1 825.9 716 829 713.7 822.5 721.5 819.5 724.1 825.9"/>
      <polygon class="st6" points="713.6 825 705.5 827.7 704.8 825.5 712.8 822.8 713.6 825"/>
      <polygon class="st10" points="697.9 839.5 689.4 841.6 686.8 830.4 695 828.3 697.9 839.5"/>
      <polygon class="st10" points="687.9 839.6 679.3 841.3 677.7 832.3 685.9 830.6 687.9 839.6"/>
      <polygon class="st10" points="678.4 841.5 669.8 842.9 668.4 833.8 676.7 832.4 678.4 841.5"/>
      <polygon class="st10" points="668.8 843 660.1 844.1 659.2 834.9 667.5 833.9 668.8 843"/>
      <polygon class="st10" points="659.1 844.2 650.4 844.9 649.8 835.7 658.2 835 659.1 844.2"/>
      <polygon class="st10" points="649.2 840.4 640.6 840.7 640.5 836.1 648.9 835.8 649.2 840.4"/>
      <polygon class="st10" points="639.7 840.7 631.1 840.7 631.2 836.1 639.6 836.1 639.7 840.7"/>
      <polygon class="st10" points="630.2 838.4 621.7 838.1 621.8 835.8 630.2 836.1 630.2 838.4"/>
      <polygon class="st10" points="620.8 838 612.3 837.3 612.5 835 620.9 835.7 620.8 838"/>
      <polygon class="st10" points="611.3 837.2 602.9 836.2 603.2 833.9 611.6 834.9 611.3 837.2"/>
      <polygon class="st10" points="602 836.1 593.6 834.7 594 832.4 602.3 833.8 602 836.1"/>
      <polygon class="st10" points="592.7 834.5 584.3 832.8 584.8 830.6 593.1 832.3 592.7 834.5"/>
      <polygon class="st10" points="583.4 832.6 575.2 830.6 575.8 828.3 583.9 830.4 583.4 832.6"/>
      <polygon class="st6" points="564.5 829.8 556.4 827.1 557.9 822.8 565.9 825.5 564.5 829.8"/>
      <polygon class="st6" points="555.5 826.8 547.5 823.7 549.2 819.5 557.1 822.5 555.5 826.8"/>
      <polygon class="st6" points="547.5 821.2 539.7 817.9 540.6 815.8 548.3 819.1 547.5 821.2"/>
      <polygon class="st6" points="538.8 817.5 531.1 813.8 532.2 811.8 539.8 815.4 538.8 817.5"/>
      <polygon class="st6" points="530.3 813.4 522.8 809.4 523.9 807.4 531.3 811.4 530.3 813.4"/>
      <polygon class="st6" points="506.6 816 499 811.2 507.9 797.7 515 802.3 506.6 816"/>
      <polygon class="st6" points="500.7 806.8 493.5 801.8 500.2 792.4 507.1 797.2 500.7 806.8"/>
      <polygon class="st6" points="492.7 801.2 485.6 795.8 492.8 786.8 499.5 791.9 492.7 801.2"/>
      <polygon class="st6" points="487.8 791.6 481.1 786.1 485.6 780.9 492 786.2 487.8 791.6"/>
      <polygon class="st6" points="480.3 785.5 473.9 779.7 478.6 774.6 484.9 780.2 480.3 785.5"/>
      <polygon class="st6" points="473.2 779.1 467 773 471.9 768.2 477.9 774 473.2 779.1"/>
      <polygon class="st6" points="467.9 770.7 462 764.5 465.4 761.4 471.2 767.5 467.9 770.7"/>
      <polygon class="st6" points="461.4 763.8 455.7 757.3 459.2 754.4 464.8 760.7 461.4 763.8"/>
      <polygon class="st6" points="455.1 756.6 449.7 749.9 453.4 747.1 458.6 753.7 455.1 756.6"/>
      <polygon class="st6" points="449.1 749.2 444 742.3 447.8 739.6 452.8 746.4 449.1 749.2"/>
      <polygon class="st6" points="445.4 740.2 440.6 733.2 442.5 731.9 447.2 738.9 445.4 740.2"/>
      <polygon class="st6" points="440 732.4 435.6 725.2 437.5 724 442 731.1 440 732.4"/>
      <polygon class="st6" points="435.1 724.4 430.9 717 432.9 715.9 437.1 723.2 435.1 724.4"/>
      <polygon class="st13" points="419.9 710.8 416.2 702.8 424.6 699.1 428.2 706.7 419.9 710.8"/>
      <polygon class="st13" points="417.9 701 414.6 693 421 690.5 424.3 698.3 417.9 701"/>
      <polygon class="st13" points="414.2 692.2 411.2 684 417.8 681.7 420.7 689.6 414.2 692.2"/>
      <polygon class="st13" points="413.1 682.4 410.4 674.2 414.9 672.9 417.5 680.9 413.1 682.4"/>
      <polygon class="st13" points="410.2 673.3 407.9 665 412.3 663.9 414.6 672 410.2 673.3"/>
      <polygon class="st13" points="409.8 663.5 407.9 655.3 410.1 654.8 412.1 663 409.8 663.5"/>
      <polygon class="st13" points="407.7 654.3 406.1 646 408.3 645.6 409.9 653.9 407.7 654.3"/>
      <polygon class="st13" points="405.9 645.1 404.6 636.7 406.9 636.4 408.2 644.7 405.9 645.1"/>
      <polygon class="st6" points="392 627.4 391.3 618.5 405.1 617.8 405.8 626.2 392 627.4"/>
      <polygon class="st6" points="395.9 617.3 395.6 608.5 404.9 608.4 405.1 616.8 395.9 617.3"/>
      <polygon class="st6" points="397.9 607.6 398 598.9 404.9 599.1 404.8 607.5 397.9 607.6"/>
      <polygon class="st6" points="400.4 598 400.8 589.4 405.4 589.8 405 598.2 400.4 598"/>
      <polygon class="st6" points="403.1 588.7 403.9 580.2 406.2 580.5 405.5 588.8 403.1 588.7"/>
      <polygon class="st6" points="404 579.3 405.1 570.8 407.4 571.2 406.3 579.5 404 579.3"/>
      <polygon class="st6" points="405.3 569.9 406.7 561.5 409 562 407.6 570.3 405.3 569.9"/>
      <polygon class="st6" points="406.9 560.6 408.7 552.3 411 552.8 409.2 561.1 406.9 560.6"/>
      <polygon class="st10" points="398 538.5 400.6 529.9 416 534.8 413.5 542.9 398 538.5"/>
      <polygon class="st10" points="405.3 530.4 408.2 522 419 526 416.3 534 405.3 530.4"/>
      <polygon class="st10" points="408.5 521.1 411.8 512.9 422.4 517.3 419.4 525.1 408.5 521.1"/>
      <polygon class="st10" points="414.3 512.9 417.8 504.9 426.2 508.7 422.8 516.4 414.3 512.9"/>
      <polygon class="st10" points="418.2 504 422.1 496.1 430.3 500.3 426.6 507.9 418.2 504"/>
      <polygon class="st10" points="422.5 495.3 426.7 487.6 434.7 492.1 430.7 499.5 422.5 495.3"/>
      <polygon class="st10" points="431.2 489 435.6 481.6 439.5 484.1 435.2 491.3 431.2 489"/>
      <polygon class="st10" points="436.1 480.8 440.8 473.6 444.6 476.2 440 483.3 436.1 480.8"/>
      <polygon class="st10" points="441.3 472.9 446.3 465.9 450 468.6 445.1 475.5 441.3 472.9"/>
      <polygon class="st10" points="448.7 466.5 453.9 459.8 455.7 461.2 450.5 467.9 448.7 466.5"/>
      <polygon class="st10" points="454.5 459 459.9 452.5 461.7 454 456.3 460.5 454.5 459"/>
      <polygon class="st10" points="460.6 451.8 466.3 445.5 468 447.1 462.3 453.4 460.6 451.8"/>
      <polygon class="st10" points="466.9 444.9 472.9 438.8 474.5 440.5 468.6 446.5 466.9 444.9"/>
      <polygon class="st10" points="473.6 438.2 479.8 432.4 481.3 434.1 475.2 439.8 473.6 438.2"/>
      <polygon class="st10" points="480.5 431.8 487 426.2 488.4 428 482 433.5 480.5 431.8"/>
      <polygon class="st10" points="478.4 397.7 486.1 392.1 503.3 416.7 496.5 421.6 478.4 397.7"/>
      <polygon class="st10" points="496.2 404.8 503.6 399.8 511 411.5 504.1 416.1 496.2 404.8"/>
      <polygon class="st10" points="508.1 405.1 515.5 400.6 519 406.6 511.8 411 508.1 405.1"/>
      <polygon class="st10" points="517.5 402.1 525 398 527.2 402 519.8 406.1 517.5 402.1"/>
      <polygon class="st10" points="526.9 399.6 534.5 395.8 535.5 397.8 528 401.6 526.9 399.6"/>
      <polygon class="st10" points="535.4 395.4 543.1 391.8 544 394 536.4 397.4 535.4 395.4"/>
      <polygon class="st10" points="544 391.5 551.8 388.3 552.7 390.4 544.9 393.6 544 391.5"/>
      <polygon class="st10" points="560.2 380.4 568.4 377.8 570.4 384.4 562.3 387 560.2 380.4"/>
      <polygon class="st10" points="570 379.8 578.3 377.5 579.4 382 571.3 384.2 570 379.8"/>
      <polygon class="st10" points="579.2 377.3 587.6 375.4 588.5 379.9 580.3 381.8 579.2 377.3"/>
      <polygon class="st10" points="588.5 375.2 596.9 373.6 597.7 378.2 589.4 379.7 588.5 375.2"/>
      <polygon class="st10" points="598.2 375.8 606.7 374.6 606.9 376.9 598.6 378 598.2 375.8"/>
      <polygon class="st10" points="607.6 374.5 616 373.6 616.2 375.9 607.9 376.7 607.6 374.5"/>
      <polygon class="st10" points="617 373.5 625.5 373 625.6 375.3 617.2 375.8 617 373.5"/>
      <line class="st2" x1="646.6" y1="329.2" x2="635.4" y2="329"/>
      <line class="st2" x1="811.3" y1="392.1" x2="802.5" y2="385.2"/>
      <line class="st2" x1="857.5" y1="440.8" x2="850.7" y2="431.9"/>
      <line class="st2" x1="910.3" y1="574.8" x2="908.8" y2="563.7"/>
      <line class="st2" x1="900.2" y1="685.8" x2="903.2" y2="675"/>
      <line class="st2" x1="806.9" y1="822.7" x2="815.6" y2="815.5"/>
      <line class="st2" x1="707.4" y1="872.7" x2="718.2" y2="869.6"/>
      <line class="st2" x1="552.5" y1="869.6" x2="563.3" y2="872.7"/>
      <line class="st2" x1="491.4" y1="841.9" x2="501.1" y2="847.5"/>
      <line class="st2" x1="387" y1="727.5" x2="392.1" y2="737.4"/>
      <line class="st2" x1="359.9" y1="630.8" x2="361.1" y2="642"/>
      <line class="st2" x1="369" y1="530.9" x2="366.2" y2="541.7"/>
      <line class="st2" x1="468.3" y1="385.2" x2="459.5" y2="392.1"/>
      <line class="st2" x1="547.2" y1="343.4" x2="536.7" y2="347.2"/>
      <line class="st2" x1="646.1" y1="340.7" x2="635.4" y2="340.5"/>
      <line class="st2" x1="804" y1="401" x2="795.5" y2="394.4"/>
      <line class="st2" x1="848.3" y1="447.6" x2="841.7" y2="439.1"/>
      <line class="st2" x1="898.8" y1="576.1" x2="897.4" y2="565.5"/>
      <line class="st2" x1="889.1" y1="682.4" x2="892" y2="672.1"/>
      <line class="st2" x1="799.8" y1="813.6" x2="808.1" y2="806.8"/>
      <line class="st2" x1="704.4" y1="861.6" x2="714.7" y2="858.6"/>
      <line class="st2" x1="556" y1="858.6" x2="566.3" y2="861.6"/>
      <line class="st2" x1="497.4" y1="832" x2="506.7" y2="837.4"/>
      <line class="st2" x1="397.4" y1="722.4" x2="402.3" y2="731.9"/>
      <line class="st2" x1="371.4" y1="629.8" x2="372.5" y2="640.5"/>
      <line class="st2" x1="380.1" y1="534" x2="377.4" y2="544.4"/>
      <line class="st2" x1="475.2" y1="394.4" x2="466.8" y2="401"/>
      <line class="st2" x1="550.9" y1="354.3" x2="540.8" y2="358"/>
      <line class="st2" x1="645.7" y1="352.2" x2="635.4" y2="352"/>
      <line class="st2" x1="796.6" y1="409.9" x2="788.5" y2="403.5"/>
      <line class="st2" x1="839" y1="454.5" x2="832.7" y2="446.4"/>
      <line class="st2" x1="887.4" y1="577.4" x2="886" y2="567.2"/>
      <line class="st2" x1="878.1" y1="679.1" x2="880.9" y2="669.2"/>
      <line class="st2" x1="792.6" y1="804.6" x2="800.5" y2="798"/>
      <line class="st2" x1="701.4" y1="850.5" x2="711.3" y2="847.6"/>
      <line class="st2" x1="559.5" y1="847.6" x2="569.3" y2="850.5"/>
      <line class="st2" x1="503.4" y1="822.2" x2="512.3" y2="827.4"/>
      <line class="st2" x1="407.7" y1="717.3" x2="412.4" y2="726.4"/>
      <line class="st2" x1="382.8" y1="628.7" x2="384" y2="638.9"/>
      <line class="st2" x1="391.2" y1="537.1" x2="388.6" y2="547.1"/>
      <line class="st2" x1="482.2" y1="403.5" x2="474.1" y2="409.9"/>
      <line class="st2" x1="554.6" y1="365.3" x2="544.9" y2="368.7"/>
      <line class="st2" x1="645.2" y1="363.8" x2="635.4" y2="363.6"/>
      <line class="st2" x1="789.3" y1="418.8" x2="781.6" y2="412.7"/>
      <line class="st2" x1="829.8" y1="461.4" x2="823.8" y2="453.6"/>
      <line class="st2" x1="875.9" y1="578.7" x2="874.6" y2="569"/>
      <line class="st2" x1="867" y1="675.8" x2="869.7" y2="666.3"/>
      <line class="st2" x1="785.5" y1="795.5" x2="793" y2="789.3"/>
      <line class="st2" x1="698.4" y1="839.3" x2="707.8" y2="836.6"/>
      <line class="st2" x1="562.9" y1="836.6" x2="572.3" y2="839.3"/>
      <line class="st2" x1="509.4" y1="812.3" x2="517.9" y2="817.3"/>
      <line class="st2" x1="418" y1="712.2" x2="422.5" y2="721"/>
      <line class="st2" x1="394.3" y1="627.7" x2="395.4" y2="637.4"/>
      <line class="st2" x1="402.3" y1="540.2" x2="399.9" y2="549.7"/>
      <line class="st2" x1="489.1" y1="412.7" x2="481.5" y2="418.8"/>
      <line class="st2" x1="558.2" y1="376.2" x2="549" y2="379.5"/>
      <text class="st5" transform="translate(626 378.2)"><tspan x="0" y="0">0</tspan></text>
      <text class="st5" transform="translate(625.7 366.7)"><tspan x="0" y="0">5</tspan></text>
      <text class="st5" transform="translate(620.7 355.2)"><tspan x="0" y="0">10</tspan></text>
      <text class="st5" transform="translate(620.5 343.6)"><tspan x="0" y="0">15</tspan></text>
      <text class="st5" transform="translate(620.3 332.1)"><tspan x="0" y="0">20</tspan></text>
      <g class="st8">
        <text class="st3" transform="translate(659.9 269.7) rotate(-89)"><tspan x="0" y="0">bathy &amp; topo</tspan></text>
      </g>
      <g class="st8">
        <text class="st3" transform="translate(671.9 287.1) rotate(-86)"><tspan x="0" y="0">circulation</tspan></text>
      </g>
      <g class="st8">
        <text class="st3" transform="translate(682.8 302.5) rotate(-84)"><tspan x="0" y="0">temperature</tspan></text>
      </g>
      <g class="st8">
        <text class="st3" transform="translate(691.3 325.1) rotate(-82)"><tspan x="0" y="0">primary productivity</tspan></text>
      </g>
      <g class="st8">
        <text class="st3" transform="translate(700.6 336.6) rotate(-79)"><tspan x="0" y="0">distance to physical features</tspan></text>
      </g>
      <g class="st8">
        <text class="st3" transform="translate(711.4 339.4) rotate(-77)"><tspan x="0" y="0">water biogeochemistry</tspan></text>
      </g>
      <g class="st8">
        <text class="st3" transform="translate(721.5 344.9) rotate(-75)"><tspan x="0" y="0">fronts</tspan></text>
      </g>
      <g class="st8">
        <text class="st3" transform="translate(729.6 355.2) rotate(-72)"><tspan x="0" y="0">salinity</tspan></text>
      </g>
      <g class="st8">
        <text class="st3" transform="translate(737.9 363.5) rotate(-70)"><tspan x="0" y="0">habitat</tspan></text>
      </g>
      <g class="st8">
        <text class="st3" transform="translate(746.7 369.9) rotate(-68)"><tspan x="0" y="0">climate &amp; hydrology</tspan></text>
      </g>
      <g class="st8">
        <text class="st3" transform="translate(756.2 374.6) rotate(-65)"><tspan x="0" y="0">light</tspan></text>
      </g>
      <g class="st8">
        <text class="st3" transform="translate(765.5 379.7) rotate(-63)"><tspan x="0" y="0">species attributes</tspan></text>
      </g>
      <g class="st8">
        <text class="st3" transform="translate(773.3 387.1) rotate(-61)"><tspan x="0" y="0">fishing</tspan></text>
      </g>
      <g class="st8">
        <text class="st3" transform="translate(780.8 394.8) rotate(-58)"><tspan x="0" y="0">human activity</tspan></text>
      </g>
      <g class="st8">
        <text class="st3" transform="translate(789.2 400.9) rotate(-56)"><tspan x="0" y="0">physical habitat structure</tspan></text>
      </g>
      <g class="st8">
        <text class="st3" transform="translate(812.8 405.3) rotate(-51)"><tspan x="0" y="0">pollution</tspan></text>
      </g>
      <g class="st8">
        <text class="st3" transform="translate(814.4 419.4) rotate(-49)"><tspan x="0" y="0">human activity</tspan></text>
      </g>
      <g class="st8">
        <text class="st3" transform="translate(820.2 428.4) rotate(-47)"><tspan x="0" y="0">climate &amp; hydrology</tspan></text>
      </g>
      <g class="st8">
        <text class="st3" transform="translate(827.2 436) rotate(-44)"><tspan x="0" y="0">fishing</tspan></text>
      </g>
      <g class="st8">
        <text class="st3" transform="translate(834 444) rotate(-42)"><tspan x="0" y="0">species attributes</tspan></text>
      </g>
      <g class="st8">
        <text class="st3" transform="translate(868.9 444.5) rotate(-37)"><tspan x="0" y="0">bathy &amp; topo</tspan></text>
      </g>
      <g class="st8">
        <text class="st3" transform="translate(865.6 460.4) rotate(-35)"><tspan x="0" y="0">primary productivity</tspan></text>
      </g>
      <g class="st8">
        <text class="st3" transform="translate(865.4 473.4) rotate(-33)"><tspan x="0" y="0">circulation</tspan></text>
      </g>
      <g class="st8">
        <text class="st3" transform="translate(870.5 482.8) rotate(-30)"><tspan x="0" y="0">temperature</tspan></text>
      </g>
      <g class="st8">
        <text class="st3" transform="translate(871.2 494.5) rotate(-28)"><tspan x="0" y="0">water biogeochemistry</tspan></text>
      </g>
      <g class="st8">
        <text class="st3" transform="translate(873.4 505.1) rotate(-26)"><tspan x="0" y="0">distance to physical features</tspan></text>
      </g>
      <g class="st8">
        <text class="st3" transform="translate(877.3 514.8) rotate(-23)"><tspan x="0" y="0">fronts</tspan></text>
      </g>
      <g class="st8">
        <text class="st3" transform="translate(878.6 525.5) rotate(-21)"><tspan x="0" y="0">biodiversity</tspan></text>
      </g>
      <g class="st8">
        <text class="st3" transform="translate(881.6 535.4) rotate(-19)"><tspan x="0" y="0">fishing</tspan></text>
      </g>
      <g class="st8">
        <text class="st3" transform="translate(884.2 545.4) rotate(-16)"><tspan x="0" y="0">light</tspan></text>
      </g>
      <g class="st8">
        <text class="st3" transform="translate(886.5 555.5) rotate(-14)"><tspan x="0" y="0">salinity</tspan></text>
      </g>
      <g class="st8">
        <text class="st3" transform="translate(888.3 565.8) rotate(-12)"><tspan x="0" y="0">species attributes</tspan></text>
      </g>
      <g class="st8">
        <text class="st3" transform="translate(920.5 583.7) rotate(-7)"><tspan x="0" y="0">fishing</tspan></text>
      </g>
      <g class="st8">
        <text class="st3" transform="translate(916.6 595.5) rotate(-5)"><tspan x="0" y="0">temperature</tspan></text>
      </g>
      <g class="st8">
        <text class="st3" transform="translate(907.6 607) rotate(-2)"><tspan x="0" y="0">bathy &amp; topo</tspan></text>
      </g>
      <g class="st8">
        <text class="st3" transform="translate(902.7 617.8)"><tspan x="0" y="0">primary productivity</tspan></text>
      </g>
      <g class="st8">
        <text class="st3" transform="translate(897.3 628.3) rotate(2)"><tspan x="0" y="0">circulation</tspan></text>
      </g>
      <g class="st8">
        <text class="st3" transform="translate(889.3 638.2) rotate(5)"><tspan x="0" y="0">climate &amp; hydrology</tspan></text>
      </g>
      <g class="st8">
        <text class="st3" transform="translate(887.8 648.4) rotate(7)"><tspan x="0" y="0">pollution</tspan></text>
      </g>
      <g class="st8">
        <text class="st3" transform="translate(885.9 658.6) rotate(9)"><tspan x="0" y="0">salinity</tspan></text>
      </g>
      <g class="st8">
        <text class="st3" transform="translate(883.5 668.8) rotate(12)"><tspan x="0" y="0">species attributes</tspan></text>
      </g>
      <g class="st8">
        <text class="st3" transform="translate(912.7 700) rotate(16)"><tspan x="0" y="0">species attributes</tspan></text>
      </g>
      <g class="st8">
        <text class="st3" transform="translate(897.8 707.2) rotate(19)"><tspan x="0" y="0">bathy &amp; topo</tspan></text>
      </g>
      <g class="st8">
        <text class="st3" transform="translate(889.2 716) rotate(21)"><tspan x="0" y="0">circulation</tspan></text>
      </g>
      <g class="st8">
        <text class="st3" transform="translate(884.5 726.2) rotate(23)"><tspan x="0" y="0">temperature</tspan></text>
      </g>
      <g class="st8">
        <text class="st3" transform="translate(869.2 730.9) rotate(26)"><tspan x="0" y="0">distance to physical features</tspan></text>
      </g>
      <g class="st8">
        <text class="st3" transform="translate(863.9 740.3) rotate(28)"><tspan x="0" y="0">fronts</tspan></text>
      </g>
      <g class="st8">
        <text class="st3" transform="translate(858.3 749.4) rotate(30)"><tspan x="0" y="0">water biogeochemistry</tspan></text>
      </g>
      <g class="st8">
        <text class="st3" transform="translate(850.4 757) rotate(33)"><tspan x="0" y="0">primary productivity</tspan></text>
      </g>
      <g class="st8">
        <text class="st3" transform="translate(840.4 762.9) rotate(35)"><tspan x="0" y="0">climate &amp; hydrology</tspan></text>
      </g>
      <g class="st8">
        <text class="st3" transform="translate(833.8 771) rotate(37)"><tspan x="0" y="0">habitat</tspan></text>
      </g>
      <g class="st8">
        <text class="st3" transform="translate(827 778.9) rotate(40)"><tspan x="0" y="0">salinity</tspan></text>
      </g>
      <g class="st8">
        <text class="st3" transform="translate(818.1 785) rotate(42)"><tspan x="0" y="0">human activity</tspan></text>
      </g>
      <g class="st8">
        <text class="st3" transform="translate(810.7 792.2) rotate(44)"><tspan x="0" y="0">light</tspan></text>
      </g>
      <g class="st8">
        <text class="st3" transform="translate(803 799.2) rotate(47)"><tspan x="0" y="0">physical habitat structure</tspan></text>
      </g>
      <g class="st8">
        <text class="st3" transform="translate(799.3 828.7) rotate(51)"><tspan x="0" y="0">primary productivity</tspan></text>
      </g>
      <g class="st8">
        <text class="st3" transform="translate(790.1 835.1) rotate(54)"><tspan x="0" y="0">temperature</tspan></text>
      </g>
      <g class="st8">
        <text class="st3" transform="translate(777 835.4) rotate(56)"><tspan x="0" y="0">bathy &amp; topo</tspan></text>
      </g>
      <g class="st8">
        <text class="st3" transform="translate(767.5 840.9) rotate(58)"><tspan x="0" y="0">circulation</tspan></text>
      </g>
      <g class="st8">
        <text class="st3" transform="translate(754.7 840) rotate(61)"><tspan x="0" y="0">salinity</tspan></text>
      </g>
      <g class="st8">
        <text class="st3" transform="translate(744.1 842.5) rotate(63)"><tspan x="0" y="0">climate &amp; hydrology</tspan></text>
      </g>
      <g class="st8">
        <text class="st3" transform="translate(734.4 846.7) rotate(65)"><tspan x="0" y="0">distance to physical features</tspan></text>
      </g>
      <g class="st8">
        <text class="st3" transform="translate(724.5 850.5) rotate(68)"><tspan x="0" y="0">fronts</tspan></text>
      </g>
      <g class="st8">
        <text class="st3" transform="translate(713.1 849.6) rotate(70)"><tspan x="0" y="0">light</tspan></text>
      </g>
      <g class="st8">
        <text class="st3" transform="translate(695.3 864) rotate(75)"><tspan x="0" y="0">shipping</tspan></text>
      </g>
      <g class="st8">
        <text class="st3" transform="translate(684.3 864) rotate(77)"><tspan x="0" y="0">bathy &amp; topo</tspan></text>
      </g>
      <g class="st8">
        <text class="st3" transform="translate(673.8 865.7) rotate(79)"><tspan x="0" y="0">human activity</tspan></text>
      </g>
      <g class="st8">
        <text class="st3" transform="translate(663.2 867.1) rotate(82)"><tspan x="0" y="0">salinity</tspan></text>
      </g>
      <g class="st8">
        <text class="st3" transform="translate(652.6 868) rotate(84)"><tspan x="0" y="0">temperature</tspan></text>
      </g>
      <g class="st8">
        <text class="st3" transform="translate(641.7 863.9) rotate(86)"><tspan x="0" y="0">circulation</tspan></text>
      </g>
      <g class="st8">
        <text class="st3" transform="translate(631.3 863.9) rotate(89)"><tspan x="0" y="0">species attributes</tspan></text>
      </g>
      <g class="st8">
        <text class="st3" transform="translate(627.2 970.1) rotate(-89)"><tspan x="0" y="0">climate &amp; hydrology</tspan></text>
      </g>
      <g class="st8">
        <text class="st3" transform="translate(607.8 1016.8) rotate(-86)"><tspan x="0" y="0">distance to physical features</tspan></text>
      </g>
      <g class="st8">
        <text class="st3" transform="translate(604.5 897.1) rotate(-84)"><tspan x="0" y="0">habitat</tspan></text>
      </g>
      <g class="st8">
        <text class="st3" transform="translate(578.8 995.9) rotate(-82)"><tspan x="0" y="0">physical habitat structure</tspan></text>
      </g>
      <g class="st8">
        <text class="st3" transform="translate(566.9 965.1) rotate(-79)"><tspan x="0" y="0">primary productivity</tspan></text>
      </g>
      <g class="st8">
        <text class="st3" transform="translate(549.8 975.7) rotate(-77)"><tspan x="0" y="0">water biogeochemistry</tspan></text>
      </g>
      <g class="st8">
        <text class="st3" transform="translate(545.5 887.1) rotate(-72)"><tspan x="0" y="0">fishing</tspan></text>
      </g>
      <g class="st8">
        <text class="st3" transform="translate(530.9 892.8) rotate(-70)"><tspan x="0" y="0">shipping</tspan></text>
      </g>
      <g class="st8">
        <text class="st3" transform="translate(512.2 906.8) rotate(-68)"><tspan x="0" y="0">bathy &amp; topo</tspan></text>
      </g>
      <g class="st8">
        <text class="st3" transform="translate(504.4 890.4) rotate(-65)"><tspan x="0" y="0">circulation</tspan></text>
      </g>
      <g class="st8">
        <text class="st3" transform="translate(497.6 876.5) rotate(-63)"><tspan x="0" y="0">pollution</tspan></text>
      </g>
      <g class="st8">
        <text class="st3" transform="translate(428.2 940.3) rotate(-58)"><tspan x="0" y="0">water biogeochemistry</tspan></text>
      </g>
      <g class="st8">
        <text class="st3" transform="translate(448.4 883.2) rotate(-56)"><tspan x="0" y="0">bathy &amp; topo</tspan></text>
      </g>
      <g class="st8">
        <text class="st3" transform="translate(414.6 907.3) rotate(-54)"><tspan x="0" y="0">climate &amp; hydrology</tspan></text>
      </g>
      <g class="st8">
        <text class="st3" transform="translate(432.7 858.9) rotate(-51)"><tspan x="0" y="0">biodiversity</tspan></text>
      </g>
      <g class="st8">
        <text class="st3" transform="translate(427.1 845.9) rotate(-49)"><tspan x="0" y="0">circulation</tspan></text>
      </g>
      <g class="st8">
        <text class="st3" transform="translate(381.9 875.9) rotate(-47)"><tspan x="0" y="0">primary productivity</tspan></text>
      </g>
      <g class="st8">
        <text class="st3" transform="translate(338.7 895) rotate(-44)"><tspan x="0" y="0">distance to physical features</tspan></text>
      </g>
      <g class="st8">
        <text class="st3" transform="translate(420 800.4) rotate(-42)"><tspan x="0" y="0">fronts</tspan></text>
      </g>
      <g class="st8">
        <text class="st3" transform="translate(407 796.1) rotate(-40)"><tspan x="0" y="0">salinity</tspan></text>
      </g>
      <g class="st8">
        <text class="st3" transform="translate(378 802.3) rotate(-37)"><tspan x="0" y="0">temperature</tspan></text>
      </g>
      <g class="st8">
        <text class="st3" transform="translate(395.7 774.4) rotate(-35)"><tspan x="0" y="0">habitat</tspan></text>
      </g>
      <g class="st8">
        <text class="st3" transform="translate(304.3 819.9) rotate(-33)"><tspan x="0" y="0">physical habitat structure</tspan></text>
      </g>
      <g class="st8">
        <text class="st3" transform="translate(331.2 784) rotate(-30)"><tspan x="0" y="0">species attributes</tspan></text>
      </g>
      <g class="st8">
        <text class="st3" transform="translate(327.3 755.2) rotate(-26)"><tspan x="0" y="0">human activity</tspan></text>
      </g>
      <g class="st8">
        <text class="st3" transform="translate(332.6 736.9) rotate(-23)"><tspan x="0" y="0">bathy &amp; topo</tspan></text>
      </g>
      <g class="st8">
        <text class="st3" transform="translate(347.7 717.1) rotate(-21)"><tspan x="0" y="0">pollution</tspan></text>
      </g>
      <g class="st8">
        <text class="st3" transform="translate(336.7 708) rotate(-19)"><tspan x="0" y="0">circulation</tspan></text>
      </g>
      <g class="st8">
        <text class="st3" transform="translate(237.8 722.4) rotate(-16)"><tspan x="0" y="0">distance to physical features</tspan></text>
      </g>
      <g class="st8">
        <text class="st3" transform="translate(281.9 695) rotate(-14)"><tspan x="0" y="0">climate &amp; hydrology</tspan></text>
      </g>
      <g class="st8">
        <text class="st3" transform="translate(348.5 666.4) rotate(-12)"><tspan x="0" y="0">habitat</tspan></text>
      </g>
      <g class="st8">
        <text class="st3" transform="translate(336.3 655.8) rotate(-9)"><tspan x="0" y="0">shipping</tspan></text>
      </g>
      <g class="st8">
        <text class="st3" transform="translate(311.6 633.7) rotate(-5)"><tspan x="0" y="0">circulation</tspan></text>
      </g>
      <g class="st8">
        <text class="st3" transform="translate(335.6 619) rotate(-2)"><tspan x="0" y="0">habitat</tspan></text>
      </g>
      <g class="st8">
        <text class="st3" transform="translate(278.1 607.1)"><tspan x="0" y="0">species attributes</tspan></text>
      </g>
      <g class="st8">
        <text class="st3" transform="translate(221.2 591.2) rotate(2)"><tspan x="0" y="0">distance to physical features</tspan></text>
      </g>
      <g class="st8">
        <text class="st3" transform="translate(310.9 580.3) rotate(5)"><tspan x="0" y="0">bathy &amp; topo</tspan></text>
      </g>
      <g class="st8">
        <text class="st3" transform="translate(342.3 571.3) rotate(7)"><tspan x="0" y="0">salinity</tspan></text>
      </g>
      <g class="st8">
        <text class="st3" transform="translate(317.6 555.5) rotate(9)"><tspan x="0" y="0">temperature</tspan></text>
      </g>
      <g class="st8">
        <text class="st3" transform="translate(263.2 529.8) rotate(12)"><tspan x="0" y="0">water biogeochemistry</tspan></text>
      </g>
      <g class="st8">
        <text class="st3" transform="translate(283 504.7) rotate(16)"><tspan x="0" y="0">species attributes</tspan></text>
      </g>
      <g class="st8">
        <text class="st3" transform="translate(317.9 499.9) rotate(19)"><tspan x="0" y="0">bathy &amp; topo</tspan></text>
      </g>
      <g class="st8">
        <text class="st3" transform="translate(342.9 495.4) rotate(21)"><tspan x="0" y="0">shipping</tspan></text>
      </g>
      <g class="st8">
        <text class="st3" transform="translate(320 472.2) rotate(23)"><tspan x="0" y="0">human activity</tspan></text>
      </g>
      <g class="st8">
        <text class="st3" transform="translate(354.5 472.5) rotate(26)"><tspan x="0" y="0">pollution</tspan></text>
      </g>
      <g class="st8">
        <text class="st3" transform="translate(344.3 453.2) rotate(28)"><tspan x="0" y="0">temperature</tspan></text>
      </g>
      <g class="st8">
        <text class="st3" transform="translate(276.2 398.9) rotate(30)"><tspan x="0" y="0">distance to physical features</tspan></text>
      </g>
      <g class="st8">
        <text class="st3" transform="translate(385.6 447.8) rotate(33)"><tspan x="0" y="0">fishing</tspan></text>
      </g>
      <g class="st8">
        <text class="st3" transform="translate(321.1 388.2) rotate(35)"><tspan x="0" y="0">water biogeochemistry</tspan></text>
      </g>
      <g class="st8">
        <text class="st3" transform="translate(379.5 413.8) rotate(37)"><tspan x="0" y="0">biodiversity</tspan></text>
      </g>
      <g class="st8">
        <text class="st3" transform="translate(392.8 407.1) rotate(40)"><tspan x="0" y="0">circulation</tspan></text>
      </g>
      <g class="st8">
        <text class="st3" transform="translate(362.8 363.4) rotate(42)"><tspan x="0" y="0">climate &amp; hydrology</tspan></text>
      </g>
      <g class="st8">
        <text class="st3" transform="translate(423.8 402.6) rotate(44)"><tspan x="0" y="0">habitat</tspan></text>
      </g>
      <g class="st8">
        <text class="st3" transform="translate(382.9 340.7) rotate(47)"><tspan x="0" y="0">primary productivity</tspan></text>
      </g>
      <g class="st8">
        <text class="st3" transform="translate(439.9 384.6) rotate(49)"><tspan x="0" y="0">salinity</tspan></text>
      </g>
      <g class="st8">
        <text class="st3" transform="translate(426.7 325.4) rotate(54)"><tspan x="0" y="0">temperature</tspan></text>
      </g>
      <g class="st8">
        <text class="st3" transform="translate(451.5 337.7) rotate(56)"><tspan x="0" y="0">circulation</tspan></text>
      </g>
      <g class="st8">
        <text class="st3" transform="translate(445.1 303.2) rotate(58)"><tspan x="0" y="0">species attributes</tspan></text>
      </g>
      <g class="st8">
        <text class="st3" transform="translate(467.9 312.2) rotate(61)"><tspan x="0" y="0">human activity</tspan></text>
      </g>
      <g class="st8">
        <text class="st3" transform="translate(485.1 316.9) rotate(63)"><tspan x="0" y="0">bathy &amp; topo</tspan></text>
      </g>
      <g class="st8">
        <text class="st3" transform="translate(510.2 340.5) rotate(65)"><tspan x="0" y="0">fishing</tspan></text>
      </g>
      <g class="st8">
        <text class="st3" transform="translate(489 255.1) rotate(68)"><tspan x="0" y="0">water biogeochemistry</tspan></text>
      </g>
      <g class="st8">
        <text class="st3" transform="translate(515.2 240.4) rotate(72)"><tspan x="0" y="0">water biogeochemistry</tspan></text>
      </g>
      <g class="st8">
        <text class="st3" transform="translate(549.3 301.8) rotate(75)"><tspan x="0" y="0">circulation</tspan></text>
      </g>
      <g class="st8">
        <text class="st3" transform="translate(549.8 248.8) rotate(77)"><tspan x="0" y="0">climate &amp; hydrology</tspan></text>
      </g>
      <g class="st8">
        <text class="st3" transform="translate(577 314) rotate(79)"><tspan x="0" y="0">salinity</tspan></text>
      </g>
      <g class="st8">
        <text class="st3" transform="translate(588.4 305.3) rotate(82)"><tspan x="0" y="0">pollution</tspan></text>
      </g>
      <g class="st8">
        <text class="st3" transform="translate(593.9 242) rotate(84)"><tspan x="0" y="0">primary productivity</tspan></text>
      </g>
      <g class="st8">
        <text class="st3" transform="translate(611.1 284.8) rotate(86)"><tspan x="0" y="0">temperature</tspan></text>
      </g>
      <polyline class="st1" points="644.2 386.8 663.2 388.4 681.9 391.6 700.3 396.5 718.2 402.9 735.5 410.9 752 420.3 767.7 431.1"/>
      <polyline class="st1" points="774.6 436.6 791 451.5 805.8 468.1"/>
      <polyline class="st1" points="811.2 475.1 821.2 489.8 830 505.2 837.5 521.3 843.7 538 848.5 555 851.8 572.5"/>
      <polyline class="st1" points="853 581.3 854.3 601.2 853.8 621.2 851.5 641 847.4 660.5"/>
      <polyline class="st1" points="845 669.1 839.2 685.8 832 702.1 823.5 717.7 813.8 732.6 803 746.6 791 759.7 778 771.8"/>
      <polyline class="st1" points="771.2 777.5 755 789.1 737.8 799.2 719.7 807.8 700.9 814.6"/>
      <polyline class="st1" points="692.4 817.1 673.6 821.3 654.6 823.8 635.4 824.6 616.2 823.8 597.1 821.3 578.3 817.1"/>
      <polyline class="st1" points="569.8 814.6 549 806.9 529.1 797.1"/>
      <polyline class="st1" points="521.4 792.7 505.4 781.9 490.5 769.9 476.6 756.5 464 742 452.7 726.5 442.8 710"/>
      <polyline class="st1" points="438.7 702.1 431.6 685.8 425.8 669.1 421.3 651.9 418.3 634.4"/>
      <polyline class="st1" points="417.3 625.6 416.4 607.8 416.9 590.1 418.9 572.5 422.3 555"/>
      <polyline class="st1" points="424.5 546.5 430.4 528.4 437.9 510.9 446.9 494.1 457.3 478.2 469 463.2 482 449.3 496.1 436.6"/>
      <polyline class="st1" points="503.1 431.1 520.2 419.4 538.3 409.3 557.2 401"/>
      <polyline class="st1" points="565.6 398 585.5 392.4 605.9 388.6 626.5 386.8"/>
      <g class="st8">
        <text class="st7" transform="translate(669 520.7) rotate(-71)"><tspan x="0" y="0">Abundance/Density</tspan></text>
      </g>
      <g class="st8">
        <text class="st4" transform="translate(720.7 530.6) rotate(-46)"><tspan x="0" y="0">Bioaccumulation</tspan></text>
      </g>
      <g class="st8">
        <text class="st4" transform="translate(719 575.3) rotate(-21)"><tspan x="0" y="0">Diversity &amp; Endemism</tspan></text>
      </g>
      <g class="st8">
        <text class="st4" transform="translate(778 617.8) rotate(6)"><tspan x="0" y="0">Fisheries</tspan></text>
      </g>
      <g class="st8">
        <text class="st4" transform="translate(759 692.8) rotate(33)"><tspan x="0" y="0">Foraging</tspan></text>
      </g>
      <g class="st8">
        <text class="st4" transform="translate(704.6 748.2) rotate(62)"><tspan x="0" y="0">Habitat</tspan></text>
      </g>
      <g class="st8">
        <text class="st4" transform="translate(635.4 800.2) rotate(-86)"><tspan x="0" y="0">Invasives</tspan></text>
      </g>
      <g class="st8">
        <text class="st4" transform="translate(562 790.9) rotate(-67)"><tspan x="0" y="0">Mortality</tspan></text>
      </g>
      <g class="st8">
        <text class="st4" transform="translate(489.6 736.1) rotate(-45)"><tspan x="0" y="0">Nutrients &amp; </tspan><tspan x="0" y="12">Biogeochemical-Cycling</tspan></text>
      </g>
      <g class="st8">
        <text class="st4" transform="translate(447 663.5) rotate(-16)"><tspan x="0" y="0">Pollution</tspan></text>
      </g>
      <g class="st8">
        <text class="st4" transform="translate(435.2 598.9) rotate(3)"><tspan x="0" y="0">Reproduction &amp; Recruitment</tspan></text>
      </g>
      <g class="st8">
        <text class="st4" transform="translate(465.2 501.1) rotate(34)"><tspan x="0" y="0">Threat</tspan></text>
      </g>
      <g class="st8">
        <text class="st4" transform="translate(535.6 433.8) rotate(62)"><tspan class="st9" x="0" y="0">Warm</tspan><tspan x="39" y="0">-</tspan></text>
      </g>
      <g class="st8">
        <text class="st4" transform="translate(599.7 412.9) rotate(81)"><tspan x="0" y="0">Water</tspan><tspan class="st14" x="27.7" y="0"> </tspan><tspan x="30.1" y="0">Chemistry</tspan></text>
      </g>
    </g>
  </g>
</svg>